{"glyphs":{"0":{"ha":833,"x_min":0,"x_max":0,"o":"m 417 694 b 313 604 333 694 313 674 l 313 368 b 417 278 313 299 333 278 b 521 368 500 278 521 299 l 521 604 b 417 694 521 674 500 694 m 375 0 b 35 340 160 0 35 97 l 35 632 b 375 972 35 875 160 972 l 458 972 b 799 632 674 972 799 875 l 799 340 b 458 0 799 97 674 0 l 375 0 "},"1":{"ha":347,"x_min":0,"x_max":0,"o":"m 35 708 l -35 708 l -7 972 l 313 972 l 313 0 l 35 0 "},"2":{"ha":833,"x_min":0,"x_max":0,"o":"m 313 264 l 521 264 l 521 347 l 799 347 l 799 0 l 35 0 l 35 292 b 521 658 35 636 521 564 b 417 694 521 685 506 694 b 313 653 339 694 313 689 l 313 625 l 35 625 l 35 667 b 375 972 35 875 158 972 l 417 972 b 799 667 692 972 799 871 b 313 285 799 342 313 396 "},"3":{"ha":833,"x_min":0,"x_max":0,"o":"m 375 0 b 35 306 158 0 35 97 l 35 417 l 313 417 l 313 333 b 417 278 313 290 344 278 b 521 333 500 278 521 290 l 521 375 b 417 444 521 431 500 444 l 347 444 l 347 639 l 417 639 b 521 681 500 639 521 646 b 417 722 521 715 500 722 b 313 660 333 722 313 715 l 313 639 l 35 639 l 35 679 b 417 986 35 906 126 986 b 799 715 692 986 799 890 l 799 701 b 675 539 799 615 761 565 b 799 375 761 510 799 457 l 799 340 b 458 0 799 97 675 0 l 375 0 "},"4":{"ha":833,"x_min":0,"x_max":0,"o":"m 35 403 b 278 903 175 549 278 713 l 278 972 l 556 972 l 556 903 b 386 435 556 733 490 567 l 500 444 l 535 444 l 535 625 l 708 792 l 799 792 l 799 0 l 535 0 l 535 167 l 35 167 "},"5":{"ha":833,"x_min":0,"x_max":0,"o":"m 375 0 b 35 290 158 0 35 93 l 35 336 l 313 336 l 313 322 b 417 278 313 289 344 278 b 521 333 500 278 521 290 l 521 361 b 417 417 521 406 500 417 b 299 379 331 417 306 411 l 35 379 l 35 972 l 799 972 l 799 681 l 313 681 l 313 618 l 306 556 b 542 639 351 607 396 639 b 799 361 688 639 799 542 l 799 340 b 458 0 799 97 675 0 l 375 0 "},"6":{"ha":833,"x_min":0,"x_max":0,"o":"m 417 326 b 313 278 340 326 313 319 b 417 243 313 243 340 243 b 528 285 493 243 528 250 b 417 326 528 319 493 326 m 375 0 b 35 306 158 0 35 63 l 35 632 b 375 972 35 875 158 972 l 458 972 b 799 667 675 972 799 875 l 799 597 l 521 597 l 521 639 b 417 694 521 681 493 694 b 313 639 333 694 313 681 l 313 424 b 500 535 326 500 389 535 b 806 285 701 535 806 444 b 458 0 806 118 675 0 l 375 0 "},"7":{"ha":833,"x_min":0,"x_max":0,"o":"m 139 486 l 278 486 b 403 701 285 569 313 625 l 292 694 l 69 694 l 69 972 l 764 972 l 764 736 b 556 486 611 631 569 590 l 694 486 l 694 208 l 556 208 l 556 0 l 278 0 l 278 208 l 139 208 "},"8":{"ha":833,"x_min":0,"x_max":0,"o":"m 313 333 b 417 278 313 292 333 278 b 521 333 500 278 521 292 l 521 375 b 417 444 521 431 500 444 b 313 375 333 444 313 431 l 313 333 m 313 681 b 417 639 313 646 333 639 b 521 681 500 639 521 646 b 417 722 521 715 500 722 b 313 681 333 722 313 715 m 35 375 b 157 539 35 457 71 510 b 35 701 71 565 35 615 l 35 715 b 417 986 35 889 139 986 b 799 715 694 986 799 889 l 799 701 b 676 539 799 615 763 565 b 799 375 763 510 799 457 l 799 340 b 458 0 799 97 674 0 l 375 0 b 35 340 160 0 35 97 "},"9":{"ha":833,"x_min":0,"x_max":0,"o":"m 375 0 b 35 306 158 0 35 97 l 35 375 l 313 375 l 313 333 b 417 278 313 292 340 278 b 521 333 500 278 521 292 l 521 549 b 333 438 507 472 444 438 b 28 688 132 438 28 528 b 375 972 28 854 158 972 l 458 972 b 799 667 675 972 799 910 l 799 340 b 458 0 799 97 675 0 l 375 0 m 417 646 b 521 694 493 646 521 653 b 417 729 521 729 493 729 b 306 688 340 729 306 722 b 417 646 306 653 340 646 "},"Ð":{"ha":833,"x_min":0,"x_max":0,"o":"m 35 0 l 35 417 l 0 417 l 0 556 l 35 556 l 35 972 l 458 972 b 799 632 675 972 799 875 l 799 340 b 458 0 799 97 675 0 m 313 417 l 313 278 l 417 278 b 521 368 500 278 521 299 l 521 604 b 417 694 521 674 500 694 l 313 694 l 313 556 l 417 556 l 417 417 "},"ð":{"ha":833,"x_min":0,"x_max":0,"o":"m 417 236 b 521 361 506 236 521 264 b 410 458 521 424 506 458 b 313 361 338 458 313 438 l 313 333 b 417 236 313 271 328 236 m 139 861 l 225 878 b 132 951 196 901 165 925 l 132 972 l 451 972 b 497 936 468 960 483 947 l 694 986 l 694 840 l 617 826 b 806 361 747 686 806 542 b 417 -14 806 111 714 -14 b 35 292 104 -14 35 111 l 35 403 b 313 708 35 611 125 708 b 439 671 371 708 410 693 b 349 772 415 704 385 738 l 139 715 "},"Ł":{"ha":556,"x_min":0,"x_max":0,"o":"m 14 611 l 35 618 l 35 972 l 313 972 l 313 706 l 451 750 l 451 465 l 313 421 l 313 278 l 556 278 l 556 0 l 35 0 l 35 333 l 14 326 "},"ł":{"ha":347,"x_min":0,"x_max":0,"o":"m 35 372 l 0 361 l 0 611 l 35 622 l 35 972 l 313 972 l 313 711 l 347 722 l 347 472 l 313 461 l 313 0 l 35 0 "},"Š":{"ha":833,"x_min":0,"x_max":0,"o":"m 528 313 b 35 681 528 390 35 326 b 417 972 35 875 142 972 l 361 972 l 250 1097 l 250 1181 l 382 1181 l 424 1088 l 465 1181 l 597 1181 l 597 1097 l 486 972 l 458 972 b 799 667 675 972 799 875 l 799 625 l 521 625 l 521 653 b 417 694 521 689 493 694 b 313 660 326 694 313 683 b 806 292 313 582 806 646 b 417 0 806 97 699 0 l 375 0 b 35 306 158 0 35 97 l 35 347 l 313 347 l 313 319 b 417 278 313 283 340 278 b 528 313 514 278 528 296 "},"š":{"ha":833,"x_min":0,"x_max":0,"o":"m 368 972 l 410 879 l 451 972 l 583 972 l 583 889 l 472 764 l 347 764 l 236 889 l 236 972 m 417 271 b 21 486 139 292 21 326 b 417 708 21 625 132 708 b 799 514 715 708 799 639 l 799 451 l 521 451 l 521 465 b 417 486 521 486 507 486 b 299 458 319 486 299 486 b 417 424 299 438 313 431 b 813 208 729 403 813 368 b 417 -14 813 69 701 -14 b 35 181 118 -14 35 56 l 35 243 l 313 243 l 313 229 b 417 208 313 208 326 208 b 535 236 514 208 535 208 b 417 271 535 257 521 264 "},"Ý":{"ha":833,"x_min":0,"x_max":0,"o":"m 406 1181 l 593 1181 l 593 1076 l 496 972 l 350 972 m 278 301 b 35 833 85 439 35 636 l 35 972 l 313 972 l 313 833 b 417 513 313 693 338 601 b 521 833 496 601 521 693 l 521 972 l 799 972 l 799 833 b 556 301 799 636 749 439 l 556 0 l 278 0 "},"ý":{"ha":833,"x_min":0,"x_max":0,"o":"m 406 972 l 593 972 l 593 868 l 496 764 l 350 764 m 799 556 b 556 24 799 358 749 161 l 556 -278 l 278 -278 l 278 24 b 35 556 85 161 35 358 l 35 694 l 313 694 l 313 556 b 417 261 313 415 338 339 b 521 556 496 339 521 415 l 521 694 l 799 694 l 799 556 "},"Þ":{"ha":833,"x_min":0,"x_max":0,"o":"m 313 104 l 313 0 l 35 0 l 35 972 l 313 972 l 313 868 l 458 868 b 799 528 674 868 799 757 l 799 444 b 458 104 799 215 674 104 m 417 382 b 521 472 500 382 521 403 l 521 500 b 417 590 521 569 500 590 l 313 590 l 313 382 l 417 382 "},"þ":{"ha":833,"x_min":0,"x_max":0,"o":"m 417 431 b 313 347 340 431 313 396 b 417 264 313 299 340 264 b 521 347 493 264 521 299 b 417 431 521 396 493 431 m 549 -14 b 313 111 417 -14 354 21 l 313 -278 l 35 -278 l 35 972 l 313 972 l 313 583 b 549 708 354 674 417 708 b 799 403 708 708 799 611 l 799 292 b 549 -14 799 83 708 -14 "},"Ž":{"ha":833,"x_min":0,"x_max":0,"o":"m 35 0 l 35 264 l 431 708 l 278 694 l 35 694 l 35 972 l 347 972 l 236 1097 l 236 1181 l 368 1181 l 410 1088 l 451 1181 l 583 1181 l 583 1097 l 472 972 l 799 972 l 799 708 l 396 264 l 556 278 l 799 278 l 799 0 "},"ž":{"ha":833,"x_min":0,"x_max":0,"o":"m 368 972 l 410 879 l 451 972 l 583 972 l 583 889 l 472 764 l 347 764 l 236 889 l 236 972 m 35 0 l 35 236 l 410 458 l 243 438 l 35 438 l 35 694 l 799 694 l 799 451 l 424 236 l 590 257 l 799 257 l 799 0 "},"½":{"ha":1111,"x_min":0,"x_max":0,"o":"m 667 972 l 833 972 l 167 0 l 0 0 m 69 833 l 0 833 l 28 972 l 208 972 l 208 556 l 69 556 m 625 97 b 917 333 625 319 917 236 b 833 375 917 361 889 375 b 750 306 792 375 750 361 l 750 292 l 625 292 l 625 306 b 833 500 625 431 708 500 b 1042 319 944 500 1042 444 b 750 125 1042 153 819 194 l 750 111 b 819 125 778 125 792 125 l 1042 125 l 1042 0 l 625 0 l 625 97 "},"¼":{"ha":833,"x_min":0,"x_max":0,"o":"m 486 972 l 639 972 l 153 0 l 0 0 m 69 833 l 0 833 l 28 972 l 208 972 l 208 556 l 69 556 m 347 97 l 611 625 l 764 625 l 515 139 l 625 139 l 625 208 b 694 278 667 208 694 236 l 764 278 l 764 -69 l 625 -69 l 625 0 l 347 0 "},"¾":{"ha":1111,"x_min":0,"x_max":0,"o":"m 764 972 l 917 972 l 431 0 l 278 0 m 493 694 b 278 542 493 597 403 542 b 69 708 139 542 69 597 l 69 722 l 201 722 l 201 708 b 278 660 201 674 229 660 b 354 708 326 660 354 674 b 306 750 354 736 333 750 l 222 750 l 222 799 l 278 826 l 278 840 l 69 840 l 69 972 l 493 972 l 493 854 l 417 799 b 493 694 479 785 493 729 m 625 97 l 889 625 l 1042 625 l 793 139 l 903 139 l 903 208 l 972 278 l 1042 278 l 1042 -69 l 903 -69 l 903 0 l 625 0 "},"¦":{"ha":347,"x_min":0,"x_max":0,"o":"m 35 972 l 313 972 l 313 556 l 35 556 m 35 417 l 313 417 l 313 0 l 35 0 "},"−":{"ha":833,"x_min":0,"x_max":0,"o":"m 69 243 l 69 451 l 764 451 l 764 243 "},"×":{"ha":833,"x_min":0,"x_max":0,"o":"m 611 458 l 556 417 l 611 375 l 750 229 l 604 83 l 458 222 l 417 278 l 375 222 l 229 83 l 83 229 l 222 375 l 278 417 l 222 458 l 83 604 l 229 750 l 375 611 l 417 556 l 458 611 l 604 750 l 750 604 "}," ":{"ha":278,"x_min":0,"x_max":0,"o":""},"!":{"ha":347,"x_min":0,"x_max":0,"o":"m 35 694 l 35 972 l 313 972 l 313 694 l 243 347 l 104 347 m 35 278 l 313 278 l 313 0 l 35 0 "},"\"":{"ha":417,"x_min":0,"x_max":0,"o":"m 0 972 l 181 972 l 181 556 l 28 556 l 0 736 m 236 972 l 417 972 l 417 736 l 389 556 l 236 556 "},"#":{"ha":694,"x_min":0,"x_max":0,"o":"m 354 139 l 372 236 l 269 236 l 236 0 l 0 0 l 21 139 l 39 236 l 0 236 l 0 438 l 64 438 l 75 535 l 0 535 l 0 736 l 92 736 l 125 972 l 361 972 l 340 833 l 322 736 l 425 736 l 458 972 l 694 972 l 674 833 l 656 736 l 694 736 l 694 535 l 631 535 l 619 438 l 694 438 l 694 236 l 603 236 l 569 0 l 333 0 m 399 431 l 414 542 l 296 542 l 281 431 "},"$":{"ha":833,"x_min":0,"x_max":0,"o":"m 313 3 b 35 306 135 21 35 118 l 35 347 l 313 347 l 313 319 b 417 278 313 283 340 278 b 528 313 514 278 528 296 b 35 681 528 390 35 326 b 313 967 35 849 114 943 l 313 1042 l 521 1042 l 521 969 b 799 667 699 951 799 854 l 799 625 l 521 625 l 521 653 b 417 694 521 689 493 694 b 313 660 326 694 313 683 b 806 292 313 582 806 646 b 521 6 806 124 725 28 l 521 -69 l 313 -69 "},"%":{"ha":1111,"x_min":0,"x_max":0,"o":"m 486 750 b 278 542 486 625 389 542 b 69 750 167 542 69 625 l 69 778 b 278 986 69 903 167 986 b 486 778 389 986 486 903 l 486 750 m 806 972 l 972 972 l 306 0 l 139 0 m 361 778 b 278 861 361 833 333 861 b 194 778 222 861 194 833 l 194 750 b 278 667 194 694 222 667 b 361 750 333 667 361 694 l 361 778 m 1042 194 b 833 -14 1042 69 944 -14 b 625 194 722 -14 625 69 l 625 222 b 833 431 625 347 722 431 b 1042 222 944 431 1042 347 l 1042 194 m 917 222 b 833 306 917 278 889 306 b 750 222 778 306 750 278 l 750 194 b 833 111 750 139 778 111 b 917 194 889 111 917 139 l 917 222 "},"&":{"ha":1111,"x_min":0,"x_max":0,"o":"m 514 708 b 547 632 514 685 528 657 b 604 708 582 651 604 679 b 563 757 604 743 588 757 b 514 708 539 757 514 747 m 799 556 l 1076 556 l 1076 486 b 975 163 1076 356 1044 246 l 1042 90 l 1042 0 l 771 0 l 751 21 b 486 -14 678 -1 589 -14 b 21 333 201 -14 21 97 b 265 589 21 479 115 560 b 236 743 243 638 236 688 b 556 986 236 889 361 986 b 875 743 771 986 875 910 b 661 507 875 636 783 547 l 779 378 b 799 486 792 408 799 444 m 299 333 b 486 250 299 279 361 250 b 544 251 507 250 526 250 l 381 433 b 299 333 322 415 299 381 "},"'":{"ha":347,"x_min":0,"x_max":0,"o":"m 35 972 l 313 972 l 313 764 l 250 556 l 104 556 l 35 764 "},"(":{"ha":347,"x_min":0,"x_max":0,"o":"m 347 -278 b 35 -35 125 -278 35 -194 l 35 729 b 347 972 35 889 125 972 l 375 972 l 375 764 l 347 764 b 313 694 326 764 313 750 l 313 0 b 347 -69 313 -56 326 -69 l 375 -69 l 375 -278 l 347 -278 "},")":{"ha":347,"x_min":0,"x_max":0,"o":"m -28 -278 l -28 -69 l 0 -69 b 35 0 21 -69 35 -56 l 35 694 b 0 764 35 750 21 764 l -28 764 l -28 972 l 0 972 b 313 729 222 972 313 889 l 313 -35 b 0 -278 313 -194 222 -278 "},"*":{"ha":278,"x_min":0,"x_max":0,"o":"m 90 924 l 90 972 l 188 972 l 188 924 l 146 861 l 160 847 l 208 910 l 250 924 l 285 833 l 236 819 l 167 833 l 167 819 l 236 792 l 264 757 l 188 694 l 160 729 l 153 806 l 125 806 l 118 729 l 90 694 l 14 757 l 42 792 l 111 819 l 111 833 l 42 819 l -7 833 l 28 924 l 69 910 l 118 847 l 132 861 "},"+":{"ha":833,"x_min":0,"x_max":0,"o":"m 583 243 l 514 250 l 521 181 l 521 0 l 313 0 l 313 181 l 319 250 l 250 243 l 69 243 l 69 451 l 250 451 l 319 444 l 313 514 l 313 694 l 521 694 l 521 514 l 514 444 l 583 451 l 764 451 l 764 243 "},",":{"ha":347,"x_min":0,"x_max":0,"o":"m 35 278 l 313 278 l 313 69 l 250 -139 l 76 -139 l 76 0 l 35 0 "},"-":{"ha":278,"x_min":0,"x_max":0,"o":"m 0 479 l 278 479 l 278 215 l 0 215 "},".":{"ha":347,"x_min":0,"x_max":0,"o":"m 35 278 l 313 278 l 313 0 l 35 0 "},"/":{"ha":347,"x_min":0,"x_max":0,"o":"m 104 972 l 347 972 l 243 0 l 0 0 "},":":{"ha":347,"x_min":0,"x_max":0,"o":"m 35 694 l 313 694 l 313 417 l 35 417 m 35 278 l 313 278 l 313 0 l 35 0 "},";":{"ha":347,"x_min":0,"x_max":0,"o":"m 35 618 l 313 618 l 313 340 l 35 340 m 35 278 l 313 278 l 313 69 l 250 -139 l 76 -139 l 76 0 l 35 0 "},"<":{"ha":556,"x_min":0,"x_max":0,"o":"m 271 694 l 521 694 l 521 674 l 292 389 l 243 347 l 292 306 l 521 21 l 521 0 l 271 0 l 14 333 l 14 361 "},"=":{"ha":833,"x_min":0,"x_max":0,"o":"m 69 486 l 69 694 l 764 694 l 764 486 m 69 139 l 69 347 l 764 347 l 764 139 "},">":{"ha":556,"x_min":0,"x_max":0,"o":"m 542 333 l 285 0 l 35 0 l 35 21 l 264 306 l 313 347 l 264 389 l 35 674 l 35 694 l 285 694 l 542 361 "},"?":{"ha":625,"x_min":0,"x_max":0,"o":"m 208 389 b 354 736 175 571 354 674 b 313 764 354 754 340 764 b 278 722 285 764 278 754 l 278 694 l 35 694 l 35 778 b 313 986 35 917 138 986 b 597 764 518 986 597 903 b 424 389 597 604 465 540 l 403 313 l 222 313 l 208 389 m 174 278 l 451 278 l 451 0 l 174 0 "},"@":{"ha":972,"x_min":0,"x_max":0,"o":"m 694 701 b 625 771 694 750 667 771 l 479 771 b 271 563 354 771 271 701 l 271 410 b 479 201 271 271 354 201 l 903 201 l 903 0 l 486 0 b 69 347 222 0 69 139 l 69 625 b 486 972 69 833 222 972 l 625 972 b 903 694 806 972 903 889 l 903 278 l 708 278 l 694 340 b 549 271 681 306 625 271 b 354 431 424 271 354 333 l 354 542 b 549 701 354 639 424 701 b 694 646 625 701 681 674 m 694 486 b 625 549 694 528 674 549 b 556 486 576 549 556 528 b 625 424 556 444 576 424 b 694 486 674 424 694 444 "},"A":{"ha":833,"x_min":0,"x_max":0,"o":"m 521 972 b 799 347 743 813 799 625 l 799 0 l 521 0 l 521 208 l 313 208 l 313 0 l 35 0 l 35 347 b 313 972 35 625 90 813 l 521 972 m 517 451 b 417 707 507 568 478 642 b 317 451 356 642 326 568 "},"B":{"ha":833,"x_min":0,"x_max":0,"o":"m 35 0 l 35 972 l 493 972 b 785 701 675 972 785 875 b 658 519 785 624 747 557 b 806 333 760 489 806 428 l 806 271 b 458 0 806 90 679 0 m 417 243 b 521 326 507 243 521 271 l 521 354 b 417 431 521 403 506 431 l 313 431 l 313 243 l 417 243 m 451 611 b 507 674 496 611 507 633 b 451 729 507 711 493 729 l 313 729 l 313 611 l 451 611 "},"C":{"ha":833,"x_min":0,"x_max":0,"o":"m 375 0 b 35 340 158 0 35 97 l 35 632 b 375 972 35 875 158 972 l 458 972 b 799 667 675 972 799 875 l 799 556 l 521 556 l 521 604 b 417 694 521 674 493 694 b 313 604 333 694 313 674 l 313 368 b 417 278 313 299 333 278 b 521 368 493 278 521 299 l 521 417 l 799 417 l 799 306 b 458 0 799 97 675 0 l 375 0 "},"D":{"ha":833,"x_min":0,"x_max":0,"o":"m 35 0 l 35 972 l 458 972 b 799 632 675 972 799 875 l 799 340 b 458 0 799 97 675 0 m 417 278 b 521 368 500 278 521 299 l 521 604 b 417 694 521 674 500 694 l 313 694 l 313 278 l 417 278 "},"E":{"ha":833,"x_min":0,"x_max":0,"o":"m 35 972 l 799 972 l 799 694 l 313 694 l 313 590 l 729 590 l 729 347 l 313 347 l 313 278 l 799 278 l 799 0 l 35 0 "},"F":{"ha":833,"x_min":0,"x_max":0,"o":"m 35 972 l 799 972 l 799 694 l 313 694 l 313 521 l 729 521 l 729 243 l 313 243 l 313 0 l 35 0 "},"G":{"ha":833,"x_min":0,"x_max":0,"o":"m 313 368 b 417 264 313 299 347 264 b 521 313 493 264 521 278 l 382 313 l 382 556 l 806 556 l 806 313 l 785 313 l 799 139 l 799 0 l 535 0 l 521 111 b 333 -14 507 35 444 -14 b 35 292 129 -14 35 69 l 35 632 b 375 972 35 875 160 972 l 458 972 b 799 667 674 972 799 875 l 799 590 l 521 590 l 521 604 b 417 694 521 674 493 694 b 313 604 333 694 313 674 l 313 368 "},"H":{"ha":833,"x_min":0,"x_max":0,"o":"m 35 972 l 313 972 l 313 694 l 521 694 l 521 972 l 799 972 l 799 0 l 521 0 l 521 417 l 313 417 l 313 0 l 35 0 "},"I":{"ha":347,"x_min":0,"x_max":0,"o":"m 35 972 l 313 972 l 313 0 l 35 0 "},"J":{"ha":694,"x_min":0,"x_max":0,"o":"m 35 347 l 313 347 l 313 292 b 347 264 313 272 326 264 b 382 299 368 264 382 272 l 382 972 l 660 972 l 660 264 b 347 -14 660 69 550 -14 b 35 250 129 -14 35 56 "},"K":{"ha":833,"x_min":0,"x_max":0,"o":"m 313 0 l 35 0 l 35 972 l 313 972 l 313 507 l 389 507 b 493 625 472 507 486 531 l 521 972 l 799 972 l 771 625 b 679 396 765 533 742 440 b 799 139 751 351 786 244 l 813 0 l 535 0 l 521 139 b 417 264 511 240 500 264 l 313 264 "},"L":{"ha":556,"x_min":0,"x_max":0,"o":"m 313 972 l 313 278 l 556 278 l 556 0 l 35 0 l 35 972 "},"M":{"ha":1111,"x_min":0,"x_max":0,"o":"m 35 972 l 271 972 l 438 694 b 556 469 483 618 522 542 b 674 694 589 542 628 618 l 840 972 l 1076 972 l 1076 0 l 799 0 l 799 243 l 815 424 l 764 333 b 694 69 701 222 694 194 l 694 0 l 417 0 l 417 69 b 347 333 417 194 410 222 l 296 424 l 313 243 l 313 0 l 35 0 "},"N":{"ha":833,"x_min":0,"x_max":0,"o":"m 306 396 l 313 278 l 313 0 l 35 0 l 35 972 l 299 972 l 528 576 l 521 694 l 521 972 l 799 972 l 799 0 l 535 0 "},"O":{"ha":833,"x_min":0,"x_max":0,"o":"m 417 694 b 313 604 333 694 313 674 l 313 368 b 417 278 313 299 333 278 b 521 368 500 278 521 299 l 521 604 b 417 694 521 674 500 694 m 375 0 b 35 340 160 0 35 97 l 35 632 b 375 972 35 875 160 972 l 458 972 b 799 632 674 972 799 875 l 799 340 b 458 0 799 97 674 0 l 375 0 "},"P":{"ha":833,"x_min":0,"x_max":0,"o":"m 313 208 l 313 0 l 35 0 l 35 972 l 458 972 b 799 632 675 972 799 864 l 799 549 b 458 208 799 317 674 208 m 417 486 b 521 576 500 486 521 508 l 521 604 b 417 694 521 672 500 694 l 313 694 l 313 486 l 417 486 "},"Q":{"ha":833,"x_min":0,"x_max":0,"o":"m 290 6 b 35 340 128 31 35 131 l 35 632 b 375 972 35 875 160 972 l 458 972 b 799 632 674 972 799 875 l 799 340 b 543 6 799 131 706 31 l 556 -69 l 278 -69 m 417 694 b 313 604 333 694 313 674 l 313 368 b 335 268 313 318 318 288 l 347 347 l 486 347 l 499 268 b 521 368 515 288 521 318 l 521 604 b 417 694 521 674 500 694 "},"R":{"ha":833,"x_min":0,"x_max":0,"o":"m 458 972 b 806 701 681 972 806 882 l 806 639 b 654 424 806 529 758 457 b 785 208 747 375 772 300 l 813 0 l 528 0 l 500 208 b 403 326 486 317 486 326 l 313 326 l 313 0 l 35 0 l 35 972 l 458 972 m 417 542 b 521 618 507 542 521 569 l 521 646 b 417 729 521 701 507 729 l 313 729 l 313 542 l 417 542 "},"S":{"ha":833,"x_min":0,"x_max":0,"o":"m 528 313 b 35 681 528 390 35 326 b 417 972 35 875 142 972 l 458 972 b 799 667 675 972 799 875 l 799 625 l 521 625 l 521 653 b 417 694 521 689 493 694 b 313 660 326 694 313 683 b 806 292 313 582 806 646 b 417 0 806 97 699 0 l 375 0 b 35 306 158 0 35 97 l 35 347 l 313 347 l 313 319 b 417 278 313 283 340 278 b 528 313 514 278 528 296 "},"T":{"ha":833,"x_min":0,"x_max":0,"o":"m 278 694 l 0 694 l 0 972 l 833 972 l 833 694 l 556 694 l 556 0 l 278 0 "},"U":{"ha":833,"x_min":0,"x_max":0,"o":"m 375 0 b 35 340 160 0 35 97 l 35 972 l 313 972 l 313 368 b 417 278 313 299 333 278 b 521 368 500 278 521 299 l 521 972 l 799 972 l 799 340 b 458 0 799 97 674 0 l 375 0 "},"V":{"ha":833,"x_min":0,"x_max":0,"o":"m 313 0 b 35 625 90 160 35 347 l 35 972 l 313 972 l 313 625 b 417 265 313 444 339 349 b 521 625 494 349 521 444 l 521 972 l 799 972 l 799 625 b 521 0 799 347 743 160 l 313 0 "},"W":{"ha":1111,"x_min":0,"x_max":0,"o":"m 264 0 b 35 625 63 125 35 389 l 35 972 l 313 972 l 313 625 b 365 268 313 479 318 363 b 417 625 411 363 417 479 l 417 972 l 694 972 l 694 625 b 746 268 694 479 700 363 b 799 625 793 363 799 479 l 799 972 l 1076 972 l 1076 625 b 847 0 1076 389 1049 125 l 639 0 b 556 118 606 38 578 75 b 472 0 533 75 506 38 l 264 0 "},"X":{"ha":833,"x_min":0,"x_max":0,"o":"m 313 0 l 35 0 l 35 139 b 213 492 35 244 83 396 b 35 833 83 585 35 728 l 35 972 l 313 972 l 313 833 b 417 619 313 764 321 690 b 521 833 513 690 521 764 l 521 972 l 799 972 l 799 833 b 621 492 799 728 750 585 b 799 139 750 396 799 244 l 799 0 l 521 0 l 521 139 b 417 364 521 208 513 290 b 313 139 321 290 313 208 "},"Y":{"ha":833,"x_min":0,"x_max":0,"o":"m 278 301 b 35 833 85 439 35 636 l 35 972 l 313 972 l 313 833 b 417 513 313 693 338 601 b 521 833 496 601 521 693 l 521 972 l 799 972 l 799 833 b 556 301 799 636 749 439 l 556 0 l 278 0 "},"Z":{"ha":833,"x_min":0,"x_max":0,"o":"m 35 0 l 35 264 l 431 708 l 278 694 l 35 694 l 35 972 l 799 972 l 799 708 l 396 264 l 556 278 l 799 278 l 799 0 "},"[":{"ha":347,"x_min":0,"x_max":0,"o":"m 347 972 l 347 757 l 313 757 l 313 -62 l 347 -62 l 347 -278 l 35 -278 l 35 972 "},"\\":{"ha":347,"x_min":0,"x_max":0,"o":"m 104 0 l 0 972 l 243 972 l 347 0 "},"]":{"ha":347,"x_min":0,"x_max":0,"o":"m 0 -278 l 0 -62 l 35 -62 l 35 757 l 0 757 l 0 972 l 313 972 l 313 -278 "},"^":{"ha":833,"x_min":0,"x_max":0,"o":"m 764 368 l 764 90 l 743 90 l 458 375 l 417 431 l 375 375 l 90 90 l 69 90 l 69 368 l 403 694 l 431 694 "},"_":{"ha":556,"x_min":0,"x_max":0,"o":"m 556 -14 l 556 -278 l 0 -278 l 0 -14 "},"`":{"ha":278,"x_min":0,"x_max":0,"o":"m 104 764 l 7 868 l 7 972 l 194 972 l 250 764 "},"a":{"ha":833,"x_min":0,"x_max":0,"o":"m 21 188 b 313 396 21 333 126 396 b 521 319 436 396 499 369 l 521 431 b 417 493 521 486 507 493 b 313 451 333 493 313 479 l 313 438 l 35 438 l 35 465 b 417 708 35 628 125 708 b 799 458 694 708 799 611 l 799 0 l 549 0 l 528 111 b 278 -14 514 35 439 -14 b 21 188 113 -14 21 42 m 382 167 b 521 208 500 167 521 188 b 382 250 521 229 500 250 b 299 208 319 250 299 243 b 382 167 299 174 319 167 "},"b":{"ha":833,"x_min":0,"x_max":0,"o":"m 417 431 b 313 347 340 431 313 396 b 417 264 313 299 340 264 b 521 347 493 264 521 299 b 417 431 521 396 493 431 m 35 972 l 313 972 l 313 583 b 549 708 354 674 417 708 b 799 403 708 708 799 611 l 799 292 b 549 -14 799 83 708 -14 b 313 111 417 -14 354 21 l 278 0 l 35 0 "},"c":{"ha":833,"x_min":0,"x_max":0,"o":"m 799 264 b 417 -14 799 57 707 -14 b 35 264 142 -14 35 83 l 35 431 b 417 708 35 611 139 708 b 799 431 708 708 799 638 l 799 389 l 521 389 l 521 396 b 417 444 521 436 500 444 b 313 361 333 444 313 431 l 313 333 b 417 250 313 267 333 250 b 521 299 500 250 521 258 l 521 306 l 799 306 l 799 264 "},"d":{"ha":833,"x_min":0,"x_max":0,"o":"m 417 264 b 521 347 493 264 521 299 b 417 431 521 396 493 431 b 313 347 340 431 313 396 b 417 264 313 299 340 264 m 521 111 b 285 -14 479 21 417 -14 b 35 292 125 -14 35 83 l 35 403 b 285 708 35 611 125 708 b 521 583 417 708 479 674 l 521 972 l 799 972 l 799 0 l 556 0 l 521 111 "},"e":{"ha":833,"x_min":0,"x_max":0,"o":"m 799 229 b 417 -14 799 46 708 -14 b 35 264 139 -14 35 83 l 35 431 b 417 708 35 611 139 708 b 799 438 708 708 799 639 l 799 285 l 313 285 l 313 264 b 417 194 313 210 333 194 b 521 229 500 194 521 204 l 521 243 l 799 243 l 799 229 m 313 417 l 521 417 l 521 438 b 417 500 521 486 500 500 b 313 431 333 500 313 485 "},"f":{"ha":556,"x_min":0,"x_max":0,"o":"m 7 486 l 46 486 l 35 576 l 35 764 b 278 972 35 889 132 972 l 556 972 l 556 694 l 382 694 b 313 625 333 694 313 674 l 313 486 l 521 486 l 521 243 l 313 243 l 313 0 l 35 0 l 35 132 l 46 243 l 7 243 "},"g":{"ha":833,"x_min":0,"x_max":0,"o":"m 556 694 l 799 694 l 799 -14 b 417 -292 799 -194 694 -292 b 21 -69 118 -292 21 -222 b 163 111 21 24 72 81 b 35 313 78 151 35 217 l 35 403 b 285 708 35 611 125 708 b 521 583 417 708 479 674 m 521 347 b 417 431 521 396 493 431 b 313 347 340 431 313 396 b 417 264 313 299 340 264 b 521 347 493 264 521 299 m 410 -83 b 521 -14 497 -83 521 -69 l 521 90 b 403 42 497 60 453 42 b 299 -28 326 42 299 14 b 410 -83 299 -69 315 -83 "},"h":{"ha":833,"x_min":0,"x_max":0,"o":"m 35 972 l 313 972 l 313 590 b 521 708 333 667 410 708 b 799 354 729 708 799 590 l 799 0 l 521 0 l 521 340 b 417 431 521 396 493 431 b 313 340 340 431 313 396 l 313 0 l 35 0 "},"i":{"ha":347,"x_min":0,"x_max":0,"o":"m 35 972 l 313 972 l 313 757 l 35 757 m 35 694 l 313 694 l 313 0 l 35 0 "},"j":{"ha":347,"x_min":0,"x_max":0,"o":"m 35 972 l 313 972 l 313 757 l 35 757 m -28 -278 l -28 -69 l 0 -69 b 35 -35 21 -69 35 -62 l 35 694 l 313 694 l 313 -35 b 0 -278 313 -194 203 -278 "},"k":{"ha":833,"x_min":0,"x_max":0,"o":"m 35 972 l 313 972 l 313 465 l 396 465 b 500 590 479 465 486 479 l 514 694 l 799 694 l 785 590 b 614 347 769 479 736 389 b 785 104 736 306 769 215 l 799 0 l 514 0 l 500 104 b 396 229 486 215 479 229 l 313 229 l 313 0 l 35 0 "},"l":{"ha":347,"x_min":0,"x_max":0,"o":"m 35 972 l 313 972 l 313 0 l 35 0 "},"m":{"ha":1111,"x_min":0,"x_max":0,"o":"m 35 694 l 299 694 l 313 583 b 479 708 319 660 382 708 b 653 583 563 708 618 674 b 847 708 681 674 750 708 b 1076 347 1000 708 1076 611 l 1076 0 l 799 0 l 799 340 b 750 431 799 410 785 431 b 694 340 708 431 694 403 l 694 0 l 417 0 l 417 340 b 368 431 417 410 403 431 b 313 340 326 431 313 403 l 313 0 l 35 0 "},"n":{"ha":833,"x_min":0,"x_max":0,"o":"m 35 694 l 278 694 l 313 590 b 521 708 333 667 410 708 b 799 354 729 708 799 590 l 799 0 l 521 0 l 521 340 b 417 431 521 396 493 431 b 313 340 340 431 313 396 l 313 0 l 35 0 "},"o":{"ha":833,"x_min":0,"x_max":0,"o":"m 417 250 b 528 347 500 250 528 290 b 417 444 528 404 500 444 b 306 347 333 444 306 404 b 417 250 306 290 333 250 m 417 -14 b 28 326 139 -14 28 125 l 28 368 b 417 708 28 569 139 708 b 806 368 694 708 806 569 l 806 326 b 417 -14 806 125 694 -14 "},"p":{"ha":833,"x_min":0,"x_max":0,"o":"m 417 431 b 313 347 340 431 313 396 b 417 264 313 299 340 264 b 521 347 493 264 521 299 b 417 431 521 396 493 431 m 549 -14 b 313 111 417 -14 354 21 l 313 -278 l 35 -278 l 35 694 l 278 694 l 313 583 b 549 708 354 674 417 708 b 799 403 708 708 799 611 l 799 292 b 549 -14 799 83 708 -14 "},"q":{"ha":833,"x_min":0,"x_max":0,"o":"m 417 264 b 521 347 493 264 521 299 b 417 431 521 396 493 431 b 313 347 340 431 313 396 b 417 264 313 299 340 264 m 521 111 b 285 -14 479 21 417 -14 b 35 292 125 -14 35 83 l 35 403 b 285 708 35 611 125 708 b 521 583 417 708 479 674 l 556 694 l 799 694 l 799 -278 l 521 -278 l 521 111 "},"r":{"ha":556,"x_min":0,"x_max":0,"o":"m 35 694 l 278 694 l 313 583 b 458 694 333 660 361 694 l 521 694 l 521 417 l 417 417 b 313 292 333 417 313 396 l 313 0 l 35 0 "},"s":{"ha":833,"x_min":0,"x_max":0,"o":"m 417 271 b 21 486 139 292 21 326 b 417 708 21 625 132 708 b 799 514 715 708 799 639 l 799 451 l 521 451 l 521 465 b 417 486 521 486 507 486 b 299 458 319 486 299 486 b 417 424 299 438 313 431 b 813 208 729 403 813 368 b 417 -14 813 69 701 -14 b 35 181 118 -14 35 56 l 35 243 l 313 243 l 313 229 b 417 208 313 208 326 208 b 535 236 514 208 535 208 b 417 271 535 257 521 264 "},"t":{"ha":556,"x_min":0,"x_max":0,"o":"m 528 0 l 278 0 b 35 208 115 0 35 69 l 35 681 l 76 833 l 313 833 l 313 694 l 528 694 l 528 444 l 313 444 l 313 333 b 396 278 313 289 354 278 l 528 278 "},"u":{"ha":833,"x_min":0,"x_max":0,"o":"m 521 104 b 313 -14 500 28 424 -14 b 35 340 104 -14 35 104 l 35 694 l 313 694 l 313 354 b 417 264 313 299 340 264 b 521 354 493 264 521 299 l 521 694 l 799 694 l 799 0 l 556 0 l 521 104 "},"v":{"ha":833,"x_min":0,"x_max":0,"o":"m 333 0 b 35 556 99 149 35 347 l 35 694 l 313 694 l 313 556 b 417 261 313 426 336 342 b 521 556 497 342 521 426 l 521 694 l 799 694 l 799 556 b 500 0 799 347 735 149 l 333 0 "},"w":{"ha":1111,"x_min":0,"x_max":0,"o":"m 285 0 b 35 556 76 125 35 347 l 35 694 l 313 694 l 313 556 b 368 265 313 433 318 342 b 424 556 418 342 424 433 l 424 694 l 688 694 l 688 556 b 743 265 688 433 693 342 b 799 556 793 342 799 435 l 799 694 l 1076 694 l 1076 556 b 826 0 1076 347 1033 126 l 660 0 b 556 215 606 63 576 125 b 451 0 535 125 506 63 l 285 0 "},"x":{"ha":833,"x_min":0,"x_max":0,"o":"m 313 0 l 35 0 l 35 69 b 196 353 35 171 79 276 b 35 625 79 425 35 524 l 35 694 l 313 694 l 313 625 b 417 471 313 553 321 518 b 521 625 513 518 521 553 l 521 694 l 799 694 l 799 625 b 638 353 799 524 754 425 b 799 69 754 276 799 171 l 799 0 l 521 0 l 521 69 b 417 240 521 142 513 188 b 313 69 321 188 313 142 "},"y":{"ha":833,"x_min":0,"x_max":0,"o":"m 799 556 b 556 24 799 358 749 161 l 556 -278 l 278 -278 l 278 24 b 35 556 85 161 35 358 l 35 694 l 313 694 l 313 556 b 417 261 313 415 338 339 b 521 556 496 339 521 415 l 521 694 l 799 694 l 799 556 "},"z":{"ha":833,"x_min":0,"x_max":0,"o":"m 35 0 l 35 236 l 410 458 l 243 438 l 35 438 l 35 694 l 799 694 l 799 451 l 424 236 l 590 257 l 799 257 l 799 0 "},"{":{"ha":347,"x_min":0,"x_max":0,"o":"m 347 -278 b 35 -35 144 -278 35 -194 l 35 174 b 0 257 35 229 28 250 l 0 438 b 35 521 28 444 35 465 l 35 729 b 347 972 35 889 144 972 l 375 972 l 375 764 l 347 764 b 313 694 326 764 313 750 l 313 486 b 243 347 313 403 285 361 b 313 208 285 333 313 292 l 313 0 b 347 -69 313 -56 326 -69 l 375 -69 l 375 -278 l 347 -278 "},"|":{"ha":347,"x_min":0,"x_max":0,"o":"m 35 972 l 313 972 l 313 0 l 35 0 "},"}":{"ha":347,"x_min":0,"x_max":0,"o":"m -28 -278 l -28 -69 l 0 -69 b 35 0 21 -69 35 -56 l 35 208 b 104 347 35 292 63 333 b 35 486 63 361 35 403 l 35 694 b 0 764 35 750 21 764 l -28 764 l -28 972 l 0 972 b 313 729 203 972 313 889 l 313 521 b 347 438 313 465 319 444 l 347 257 b 313 174 319 250 313 229 l 313 -35 b 0 -278 313 -194 203 -278 "},"~":{"ha":556,"x_min":0,"x_max":0,"o":"m 69 288 b 163 410 69 372 104 410 b 292 361 221 410 264 361 b 313 389 306 361 313 368 l 313 410 l 486 410 l 486 333 b 389 217 486 271 447 217 b 271 264 333 217 299 264 b 250 236 257 264 250 257 l 250 215 l 69 215 "},"Ä":{"ha":833,"x_min":0,"x_max":0,"o":"m 229 1111 l 396 1111 l 396 972 l 438 972 l 438 1111 l 604 1111 l 590 938 l 567 938 b 799 347 751 785 799 606 l 799 0 l 521 0 l 521 208 l 313 208 l 313 0 l 35 0 l 35 347 b 267 938 35 606 82 785 l 243 938 m 517 451 b 417 707 507 568 478 642 b 317 451 356 642 326 568 "},"Å":{"ha":833,"x_min":0,"x_max":0,"o":"m 625 1125 b 521 972 625 1046 593 994 b 799 347 743 813 799 625 l 799 0 l 521 0 l 521 208 l 313 208 l 313 0 l 35 0 l 35 347 b 313 972 35 625 90 813 b 208 1125 240 994 208 1046 b 417 1292 208 1236 271 1292 b 625 1125 563 1292 625 1236 m 507 1125 b 417 1181 507 1160 493 1181 b 326 1125 340 1181 326 1160 b 417 1069 326 1090 340 1069 b 507 1125 493 1069 507 1090 m 517 451 b 417 707 507 568 478 642 b 317 451 356 642 326 568 "},"Ç":{"ha":833,"x_min":0,"x_max":0,"o":"m 375 0 b 35 340 158 0 35 97 l 35 632 b 375 972 35 875 158 972 l 458 972 b 799 667 675 972 799 875 l 799 556 l 521 556 l 521 604 b 417 694 521 674 493 694 b 313 604 333 694 313 674 l 313 368 b 417 278 313 299 333 278 b 521 368 493 278 521 299 l 521 417 l 799 417 l 799 306 b 458 0 799 97 675 0 l 472 0 l 472 -35 b 569 -139 535 -35 569 -69 b 389 -278 569 -236 500 -278 l 306 -278 l 319 -153 l 389 -153 b 438 -125 424 -153 438 -146 b 361 -104 438 -111 424 -104 l 375 0 "},"É":{"ha":833,"x_min":0,"x_max":0,"o":"m 35 972 l 324 972 l 361 1111 l 549 1111 l 549 1007 l 517 972 l 799 972 l 799 694 l 313 694 l 313 590 l 729 590 l 729 347 l 313 347 l 313 278 l 799 278 l 799 0 l 35 0 "},"Ñ":{"ha":833,"x_min":0,"x_max":0,"o":"m 208 1058 b 301 1181 208 1143 243 1181 b 431 1132 360 1181 403 1132 b 451 1160 444 1132 451 1139 l 451 1181 l 625 1181 l 625 1104 b 528 988 625 1042 586 988 b 410 1035 472 988 438 1035 b 389 1007 396 1035 389 1028 l 389 986 l 208 986 m 306 396 l 313 278 l 313 0 l 35 0 l 35 972 l 299 972 l 528 576 l 521 694 l 521 972 l 799 972 l 799 0 l 535 0 "},"Ö":{"ha":833,"x_min":0,"x_max":0,"o":"m 417 694 b 313 604 333 694 313 674 l 313 368 b 417 278 313 299 333 278 b 521 368 500 278 521 299 l 521 604 b 417 694 521 674 500 694 m 375 0 b 35 340 160 0 35 97 l 35 632 b 242 957 35 819 108 919 l 229 1111 l 396 1111 l 396 972 l 438 972 l 438 1111 l 604 1111 l 592 957 b 799 632 725 919 799 819 l 799 340 b 458 0 799 97 674 0 l 375 0 "},"Ü":{"ha":833,"x_min":0,"x_max":0,"o":"m 229 1181 l 396 1181 l 396 1007 l 243 1007 m 438 1181 l 604 1181 l 590 1007 l 438 1007 m 375 0 b 35 340 160 0 35 97 l 35 972 l 313 972 l 313 368 b 417 278 313 299 333 278 b 521 368 500 278 521 299 l 521 972 l 799 972 l 799 340 b 458 0 799 97 674 0 l 375 0 "},"á":{"ha":833,"x_min":0,"x_max":0,"o":"m 406 972 l 593 972 l 593 868 l 496 764 l 350 764 m 21 188 b 313 396 21 333 126 396 b 521 319 436 396 499 369 l 521 431 b 417 493 521 486 507 493 b 313 451 333 493 313 479 l 313 438 l 35 438 l 35 465 b 417 708 35 628 125 708 b 799 458 694 708 799 611 l 799 0 l 549 0 l 528 111 b 278 -14 514 35 439 -14 b 21 188 113 -14 21 42 m 382 167 b 521 208 500 167 521 188 b 382 250 521 229 500 250 b 299 208 319 250 299 243 b 382 167 299 174 319 167 "},"à":{"ha":833,"x_min":0,"x_max":0,"o":"m 351 764 l 254 868 l 254 972 l 442 972 l 497 764 m 21 188 b 313 396 21 333 126 396 b 521 319 436 396 499 369 l 521 431 b 417 493 521 486 507 493 b 313 451 333 493 313 479 l 313 438 l 35 438 l 35 465 b 417 708 35 628 125 708 b 799 458 694 708 799 611 l 799 0 l 549 0 l 528 111 b 278 -14 514 35 439 -14 b 21 188 113 -14 21 42 m 382 167 b 521 208 500 167 521 188 b 382 250 521 229 500 250 b 299 208 319 250 299 243 b 382 167 299 174 319 167 "},"â":{"ha":833,"x_min":0,"x_max":0,"o":"m 243 847 l 354 972 l 479 972 l 590 847 l 590 764 l 458 764 l 417 858 l 375 764 l 243 764 m 21 188 b 313 396 21 333 126 396 b 521 319 436 396 499 369 l 521 431 b 417 493 521 486 507 493 b 313 451 333 493 313 479 l 313 438 l 35 438 l 35 465 b 417 708 35 628 125 708 b 799 458 694 708 799 611 l 799 0 l 549 0 l 528 111 b 278 -14 514 35 439 -14 b 21 188 113 -14 21 42 m 382 167 b 521 208 500 167 521 188 b 382 250 521 229 500 250 b 299 208 319 250 299 243 b 382 167 299 174 319 167 "},"ä":{"ha":833,"x_min":0,"x_max":0,"o":"m 229 972 l 396 972 l 396 799 l 243 799 m 438 972 l 604 972 l 590 799 l 438 799 m 21 188 b 313 396 21 333 126 396 b 521 319 436 396 499 369 l 521 431 b 417 493 521 486 507 493 b 313 451 333 493 313 479 l 313 438 l 35 438 l 35 465 b 417 708 35 628 125 708 b 799 458 694 708 799 611 l 799 0 l 549 0 l 528 111 b 278 -14 514 35 439 -14 b 21 188 113 -14 21 42 m 382 167 b 521 208 500 167 521 188 b 382 250 521 229 500 250 b 299 208 319 250 299 243 b 382 167 299 174 319 167 "},"ã":{"ha":833,"x_min":0,"x_max":0,"o":"m 208 850 b 301 972 208 935 243 972 b 431 924 360 972 403 924 b 451 951 444 924 451 931 l 451 972 l 625 972 l 625 896 b 528 779 625 833 586 779 b 410 826 472 779 438 826 b 389 799 396 826 389 819 l 389 778 l 208 778 m 21 188 b 313 396 21 333 126 396 b 521 319 436 396 499 369 l 521 431 b 417 493 521 486 507 493 b 313 451 333 493 313 479 l 313 438 l 35 438 l 35 465 b 417 708 35 628 125 708 b 799 458 694 708 799 611 l 799 0 l 549 0 l 528 111 b 278 -14 514 35 439 -14 b 21 188 113 -14 21 42 m 382 167 b 521 208 500 167 521 188 b 382 250 521 229 500 250 b 299 208 319 250 299 243 b 382 167 299 174 319 167 "},"å":{"ha":833,"x_min":0,"x_max":0,"o":"m 625 917 b 417 750 625 806 563 750 b 208 917 271 750 208 806 b 417 1083 208 1028 271 1083 b 625 917 563 1083 625 1028 m 507 917 b 417 972 507 951 493 972 b 326 917 340 972 326 951 b 417 861 326 882 340 861 b 507 917 493 861 507 882 m 21 188 b 313 396 21 333 126 396 b 521 319 436 396 499 369 l 521 431 b 417 493 521 486 507 493 b 313 451 333 493 313 479 l 313 438 l 35 438 l 35 465 b 417 708 35 628 125 708 b 799 458 694 708 799 611 l 799 0 l 549 0 l 528 111 b 278 -14 514 35 439 -14 b 21 188 113 -14 21 42 m 382 167 b 521 208 500 167 521 188 b 382 250 521 229 500 250 b 299 208 319 250 299 243 b 382 167 299 174 319 167 "},"ç":{"ha":833,"x_min":0,"x_max":0,"o":"m 799 264 b 458 -14 799 68 715 -7 l 458 -35 b 556 -139 521 -35 556 -69 b 375 -278 556 -236 486 -278 l 292 -278 l 306 -153 l 375 -153 b 424 -125 410 -153 424 -146 b 347 -104 424 -111 410 -104 l 360 -12 b 35 264 126 0 35 96 l 35 431 b 417 708 35 611 139 708 b 799 431 708 708 799 638 l 799 389 l 521 389 l 521 396 b 417 444 521 436 500 444 b 313 361 333 444 313 431 l 313 333 b 417 250 313 267 333 250 b 521 299 500 250 521 258 l 521 306 l 799 306 l 799 264 "},"é":{"ha":833,"x_min":0,"x_max":0,"o":"m 406 972 l 593 972 l 593 868 l 496 764 l 350 764 m 799 229 b 417 -14 799 46 708 -14 b 35 264 139 -14 35 83 l 35 431 b 417 708 35 611 139 708 b 799 438 708 708 799 639 l 799 285 l 313 285 l 313 264 b 417 194 313 210 333 194 b 521 229 500 194 521 204 l 521 243 l 799 243 l 799 229 m 313 417 l 521 417 l 521 438 b 417 500 521 486 500 500 b 313 431 333 500 313 485 "},"è":{"ha":833,"x_min":0,"x_max":0,"o":"m 351 764 l 254 868 l 254 972 l 442 972 l 497 764 m 799 229 b 417 -14 799 46 708 -14 b 35 264 139 -14 35 83 l 35 431 b 417 708 35 611 139 708 b 799 438 708 708 799 639 l 799 285 l 313 285 l 313 264 b 417 194 313 210 333 194 b 521 229 500 194 521 204 l 521 243 l 799 243 l 799 229 m 313 417 l 521 417 l 521 438 b 417 500 521 486 500 500 b 313 431 333 500 313 485 "},"ê":{"ha":833,"x_min":0,"x_max":0,"o":"m 243 847 l 354 972 l 479 972 l 590 847 l 590 764 l 458 764 l 417 858 l 375 764 l 243 764 m 799 229 b 417 -14 799 46 708 -14 b 35 264 139 -14 35 83 l 35 431 b 417 708 35 611 139 708 b 799 438 708 708 799 639 l 799 285 l 313 285 l 313 264 b 417 194 313 210 333 194 b 521 229 500 194 521 204 l 521 243 l 799 243 l 799 229 m 313 417 l 521 417 l 521 438 b 417 500 521 486 500 500 b 313 431 333 500 313 485 "},"ë":{"ha":833,"x_min":0,"x_max":0,"o":"m 229 972 l 396 972 l 396 799 l 243 799 m 438 972 l 604 972 l 590 799 l 438 799 m 799 229 b 417 -14 799 46 708 -14 b 35 264 139 -14 35 83 l 35 431 b 417 708 35 611 139 708 b 799 438 708 708 799 639 l 799 285 l 313 285 l 313 264 b 417 194 313 210 333 194 b 521 229 500 194 521 204 l 521 243 l 799 243 l 799 229 m 313 417 l 521 417 l 521 438 b 417 500 521 486 500 500 b 313 431 333 500 313 485 "},"í":{"ha":347,"x_min":0,"x_max":0,"o":"m 163 972 l 350 972 l 350 868 l 253 764 l 107 764 m 35 694 l 313 694 l 313 0 l 35 0 "},"ì":{"ha":347,"x_min":0,"x_max":0,"o":"m 108 764 l 11 868 l 11 972 l 199 972 l 254 764 m 35 694 l 313 694 l 313 0 l 35 0 "},"î":{"ha":347,"x_min":0,"x_max":0,"o":"m 0 847 l 111 972 l 236 972 l 347 847 l 347 764 l 215 764 l 174 858 l 132 764 l 0 764 m 35 694 l 313 694 l 313 0 l 35 0 "},"ï":{"ha":347,"x_min":0,"x_max":0,"o":"m -14 972 l 153 972 l 153 799 l 0 799 m 194 972 l 361 972 l 347 799 l 194 799 m 35 694 l 313 694 l 313 0 l 35 0 "},"ñ":{"ha":833,"x_min":0,"x_max":0,"o":"m 208 850 b 301 972 208 935 243 972 b 431 924 360 972 403 924 b 451 951 444 924 451 931 l 451 972 l 625 972 l 625 896 b 528 779 625 833 586 779 b 410 826 472 779 438 826 b 389 799 396 826 389 819 l 389 778 l 208 778 m 35 694 l 278 694 l 313 590 b 521 708 333 667 410 708 b 799 354 729 708 799 590 l 799 0 l 521 0 l 521 340 b 417 431 521 396 493 431 b 313 340 340 431 313 396 l 313 0 l 35 0 "},"ó":{"ha":833,"x_min":0,"x_max":0,"o":"m 406 972 l 593 972 l 593 868 l 496 764 l 350 764 m 417 250 b 528 347 500 250 528 290 b 417 444 528 404 500 444 b 306 347 333 444 306 404 b 417 250 306 290 333 250 m 417 -14 b 28 326 139 -14 28 125 l 28 368 b 417 708 28 569 139 708 b 806 368 694 708 806 569 l 806 326 b 417 -14 806 125 694 -14 "},"ò":{"ha":833,"x_min":0,"x_max":0,"o":"m 351 764 l 254 868 l 254 972 l 442 972 l 497 764 m 417 250 b 528 347 500 250 528 290 b 417 444 528 404 500 444 b 306 347 333 444 306 404 b 417 250 306 290 333 250 m 417 -14 b 28 326 139 -14 28 125 l 28 368 b 417 708 28 569 139 708 b 806 368 694 708 806 569 l 806 326 b 417 -14 806 125 694 -14 "},"ô":{"ha":833,"x_min":0,"x_max":0,"o":"m 243 847 l 354 972 l 479 972 l 590 847 l 590 764 l 458 764 l 417 858 l 375 764 l 243 764 m 417 250 b 528 347 500 250 528 290 b 417 444 528 404 500 444 b 306 347 333 444 306 404 b 417 250 306 290 333 250 m 417 -14 b 28 326 139 -14 28 125 l 28 368 b 417 708 28 569 139 708 b 806 368 694 708 806 569 l 806 326 b 417 -14 806 125 694 -14 "},"ö":{"ha":833,"x_min":0,"x_max":0,"o":"m 229 972 l 396 972 l 396 799 l 243 799 m 438 972 l 604 972 l 590 799 l 438 799 m 417 250 b 528 347 500 250 528 290 b 417 444 528 404 500 444 b 306 347 333 444 306 404 b 417 250 306 290 333 250 m 417 -14 b 28 326 139 -14 28 125 l 28 368 b 417 708 28 569 139 708 b 806 368 694 708 806 569 l 806 326 b 417 -14 806 125 694 -14 "},"õ":{"ha":833,"x_min":0,"x_max":0,"o":"m 208 850 b 301 972 208 935 243 972 b 431 924 360 972 403 924 b 451 951 444 924 451 931 l 451 972 l 625 972 l 625 896 b 528 779 625 833 586 779 b 410 826 472 779 438 826 b 389 799 396 826 389 819 l 389 778 l 208 778 m 417 250 b 528 347 500 250 528 290 b 417 444 528 404 500 444 b 306 347 333 444 306 404 b 417 250 306 290 333 250 m 417 -14 b 28 326 139 -14 28 125 l 28 368 b 417 708 28 569 139 708 b 806 368 694 708 806 569 l 806 326 b 417 -14 806 125 694 -14 "},"ú":{"ha":833,"x_min":0,"x_max":0,"o":"m 406 972 l 593 972 l 593 868 l 496 764 l 350 764 m 521 104 b 313 -14 500 28 424 -14 b 35 340 104 -14 35 104 l 35 694 l 313 694 l 313 354 b 417 264 313 299 340 264 b 521 354 493 264 521 299 l 521 694 l 799 694 l 799 0 l 556 0 l 521 104 "},"ù":{"ha":833,"x_min":0,"x_max":0,"o":"m 351 764 l 254 868 l 254 972 l 442 972 l 497 764 m 521 104 b 313 -14 500 28 424 -14 b 35 340 104 -14 35 104 l 35 694 l 313 694 l 313 354 b 417 264 313 299 340 264 b 521 354 493 264 521 299 l 521 694 l 799 694 l 799 0 l 556 0 l 521 104 "},"û":{"ha":833,"x_min":0,"x_max":0,"o":"m 243 847 l 354 972 l 479 972 l 590 847 l 590 764 l 458 764 l 417 858 l 375 764 l 243 764 m 521 104 b 313 -14 500 28 424 -14 b 35 340 104 -14 35 104 l 35 694 l 313 694 l 313 354 b 417 264 313 299 340 264 b 521 354 493 264 521 299 l 521 694 l 799 694 l 799 0 l 556 0 l 521 104 "},"ü":{"ha":833,"x_min":0,"x_max":0,"o":"m 229 972 l 396 972 l 396 799 l 243 799 m 438 972 l 604 972 l 590 799 l 438 799 m 521 104 b 313 -14 500 28 424 -14 b 35 340 104 -14 35 104 l 35 694 l 313 694 l 313 354 b 417 264 313 299 340 264 b 521 354 493 264 521 299 l 521 694 l 799 694 l 799 0 l 556 0 l 521 104 "},"†":{"ha":833,"x_min":0,"x_max":0,"o":"m 278 313 l 290 426 l 174 417 l 35 417 l 35 694 l 174 694 l 292 681 l 278 799 l 278 972 l 556 972 l 556 799 l 542 681 l 660 694 l 799 694 l 799 417 l 660 417 l 543 426 l 556 313 l 556 -139 l 278 -139 "},"°":{"ha":556,"x_min":0,"x_max":0,"o":"m 486 750 b 278 542 486 625 389 542 b 69 750 167 542 69 625 l 69 778 b 278 986 69 903 167 986 b 486 778 389 986 486 903 l 486 750 m 361 778 b 278 861 361 833 333 861 b 194 778 222 861 194 833 l 194 750 b 278 667 194 694 222 667 b 361 750 333 667 361 694 l 361 778 "},"¢":{"ha":833,"x_min":0,"x_max":0,"o":"m 313 333 b 361 254 313 285 324 263 l 361 440 b 313 361 324 432 313 411 l 313 333 m 313 -8 b 35 264 114 14 35 108 l 35 431 b 313 703 35 586 113 681 l 313 764 l 521 764 l 521 704 b 799 431 731 688 799 610 l 799 389 l 521 389 l 521 396 b 486 440 521 421 513 433 l 486 254 b 521 299 513 261 521 274 l 521 306 l 799 306 l 799 264 b 521 -10 799 85 729 7 l 521 -69 l 313 -69 "},"§":{"ha":833,"x_min":0,"x_max":0,"o":"m 417 -14 b 69 181 153 -14 69 56 l 69 243 l 278 243 l 278 222 b 417 194 278 201 306 194 b 569 229 542 194 569 201 b 417 278 569 257 556 271 b 56 465 139 292 56 340 b 146 597 56 535 76 576 b 56 764 76 632 56 688 b 417 986 56 903 167 986 b 764 792 681 986 764 917 l 764 729 l 556 729 l 556 750 b 417 778 556 771 528 778 b 264 743 292 778 264 771 b 417 694 264 715 278 701 b 778 507 694 681 778 632 b 688 375 778 438 757 396 b 778 208 757 340 778 285 b 417 -14 778 69 667 -14 m 417 424 b 569 486 556 424 569 458 b 417 549 569 521 563 549 b 264 486 278 549 264 521 b 417 424 264 451 278 424 "},"•":{"ha":281,"x_min":0,"x_max":0,"o":"m 250 278 b 186 315 224 278 208 293 l 171 300 b 208 236 193 278 208 263 l 208 208 l 69 208 l 69 236 b 107 300 69 263 85 278 l 92 315 b 28 278 69 293 54 278 l 0 278 l 0 417 l 28 417 b 92 379 54 417 69 401 l 107 394 b 69 458 85 417 69 432 l 69 486 l 208 486 l 208 458 b 171 394 208 432 193 417 l 186 379 b 250 417 208 401 224 417 l 281 417 l 281 278 "},"¶":{"ha":972,"x_min":0,"x_max":0,"o":"m 333 556 l 250 556 b 42 764 139 556 42 639 b 250 972 42 889 139 972 l 958 972 l 958 764 l 903 764 l 903 -139 l 681 -139 l 681 764 l 556 764 l 556 -139 l 333 -139 "},"ß":{"ha":1181,"x_min":0,"x_max":0,"o":"m 368 486 b 556 674 368 615 431 653 b 674 715 653 688 674 688 b 556 750 674 743 653 750 l 368 750 b 313 681 333 750 313 736 l 313 0 l 35 0 l 35 764 b 278 972 35 889 132 972 l 556 972 b 951 736 838 972 951 892 b 764 507 951 586 882 521 b 646 458 660 493 646 479 b 764 424 646 438 660 431 b 1160 208 1076 403 1160 368 b 764 -14 1160 69 1049 -14 b 382 181 465 -14 382 56 l 382 243 l 660 243 l 660 229 b 764 208 660 208 674 208 b 882 236 861 208 882 208 b 764 271 882 257 868 264 b 368 486 486 292 368 326 "},"®":{"ha":1111,"x_min":0,"x_max":0,"o":"m 556 833 b 208 569 278 833 208 750 l 208 403 b 556 139 208 222 278 139 b 903 403 833 139 903 222 l 903 569 b 556 833 903 750 833 833 m 347 278 l 347 694 l 556 694 b 764 528 694 694 764 639 b 667 403 764 465 722 417 l 667 389 b 764 278 743 382 764 340 l 625 278 b 535 347 611 326 583 347 l 486 347 l 486 278 m 625 514 b 556 569 625 556 611 569 l 486 569 l 486 458 l 556 458 b 625 514 611 458 625 472 m 514 0 b 69 375 222 0 69 153 l 69 597 b 514 972 69 819 222 972 l 597 972 b 1042 597 889 972 1042 819 l 1042 375 b 597 0 1042 153 889 0 l 514 0 "},"©":{"ha":1111,"x_min":0,"x_max":0,"o":"m 556 833 b 208 569 278 833 208 750 l 208 403 b 556 139 208 222 278 139 b 903 403 833 139 903 222 l 903 569 b 556 833 903 736 833 833 m 764 444 b 556 264 764 319 694 264 b 333 472 417 264 333 306 l 333 500 b 556 708 333 667 417 708 b 764 528 694 708 764 653 l 764 514 l 625 514 l 625 528 b 556 569 625 556 597 569 b 472 500 500 569 472 556 l 472 472 b 556 403 472 417 500 403 b 625 444 597 403 625 417 l 625 458 l 764 458 l 764 444 m 514 0 b 69 375 222 0 69 153 l 69 597 b 514 972 69 819 222 972 l 597 972 b 1042 597 889 972 1042 819 l 1042 375 b 597 0 1042 153 889 0 l 514 0 "},"™":{"ha":1111,"x_min":0,"x_max":0,"o":"m 76 556 l 76 847 l -35 847 l -35 972 l 313 972 l 313 847 l 201 847 l 201 556 m 347 972 l 472 972 l 556 889 b 694 732 624 821 667 771 b 833 889 722 771 765 821 l 917 972 l 1042 972 l 1042 556 l 917 556 l 917 794 b 757 597 807 690 757 639 l 757 556 l 632 556 l 632 597 b 472 794 632 639 582 690 l 472 556 l 347 556 "},"´":{"ha":278,"x_min":0,"x_max":0,"o":"m 83 972 l 271 972 l 271 868 l 174 764 l 28 764 "},"¨":{"ha":278,"x_min":0,"x_max":0,"o":"m -49 972 l 118 972 l 118 799 l -35 799 m 160 972 l 326 972 l 313 799 l 160 799 "},"≠":{"ha":833,"x_min":0,"x_max":0,"o":"m 146 139 l 69 139 l 69 347 l 289 347 l 392 486 l 69 486 l 69 694 l 525 694 l 597 799 l 764 799 l 694 694 l 764 694 l 764 486 l 550 486 l 447 347 l 764 347 l 764 139 l 314 139 l 236 28 l 69 28 "},"Æ":{"ha":1319,"x_min":0,"x_max":0,"o":"m 521 208 l 313 208 l 313 0 l 35 0 l 35 347 b 521 972 35 701 111 854 l 1285 972 l 1285 694 l 799 694 l 799 590 l 1215 590 l 1215 347 l 799 347 l 799 278 l 1285 278 l 1285 0 l 521 0 m 521 451 l 521 692 b 315 451 372 649 326 600 "},"Ø":{"ha":833,"x_min":0,"x_max":0,"o":"m 417 694 b 313 604 333 694 313 674 l 313 435 l 457 692 b 417 694 446 693 432 694 m 417 278 b 521 368 500 278 521 299 l 521 539 l 376 281 b 417 278 388 279 401 278 m 118 86 b 35 340 64 140 35 224 l 35 632 b 375 972 35 875 160 972 l 458 972 b 603 953 513 972 561 967 l 653 1042 l 764 972 l 715 886 b 799 632 769 832 799 749 l 799 340 b 458 0 799 97 674 0 l 375 0 b 231 19 321 0 272 6 l 181 -69 l 69 0 "},"±":{"ha":833,"x_min":0,"x_max":0,"o":"m 69 139 l 69 347 l 250 347 l 319 340 l 313 410 l 313 424 l 319 493 l 250 486 l 69 486 l 69 694 l 250 694 l 319 688 l 313 757 l 313 972 l 521 972 l 521 757 l 514 688 l 583 694 l 764 694 l 764 486 l 583 486 l 514 493 l 521 424 l 521 410 l 514 340 l 583 347 l 764 347 l 764 139 "},"≤":{"ha":556,"x_min":0,"x_max":0,"o":"m 222 694 l 486 694 l 486 674 l 347 528 l 292 486 l 347 444 l 486 299 l 486 278 l 222 278 l 49 479 l 49 493 m 69 0 l 69 208 l 486 208 l 486 0 "},"≥":{"ha":556,"x_min":0,"x_max":0,"o":"m 507 479 l 333 278 l 69 278 l 69 299 l 208 444 l 264 486 l 208 528 l 69 674 l 69 694 l 333 694 l 507 493 m 69 208 l 486 208 l 486 0 l 69 0 "},"¥":{"ha":833,"x_min":0,"x_max":0,"o":"m 556 243 l 556 0 l 278 0 l 278 243 l 28 243 l 28 417 l 111 417 l 215 396 b 118 521 160 424 132 479 l 28 521 l 28 694 l 56 694 b 35 847 42 743 35 799 l 35 972 l 313 972 l 313 833 b 417 514 313 689 331 593 b 521 833 503 593 521 689 l 521 972 l 799 972 l 799 847 b 778 694 799 799 792 743 l 806 694 l 806 521 l 715 521 b 618 396 701 479 674 424 l 722 417 l 806 417 l 806 243 "},"ª":{"ha":556,"x_min":0,"x_max":0,"o":"m 333 611 l 319 611 b 208 542 304 569 275 542 b 56 764 122 542 56 611 b 208 986 56 917 122 986 b 319 917 275 986 304 958 l 333 917 l 333 972 l 486 972 l 486 556 l 333 556 m 333 778 b 278 833 333 813 315 833 b 208 764 228 833 208 813 b 278 694 208 715 228 694 b 333 750 315 694 333 715 l 333 778 m 69 486 l 486 486 l 486 278 l 69 278 "},"º":{"ha":556,"x_min":0,"x_max":0,"o":"m 486 750 b 278 542 486 625 389 542 b 69 750 167 542 69 625 l 69 778 b 278 986 69 903 167 986 b 486 778 389 986 486 903 l 486 750 m 361 778 b 278 861 361 833 333 861 b 194 778 222 861 194 833 l 194 750 b 278 667 194 694 222 667 b 361 750 333 667 361 694 l 361 778 m 69 486 l 486 486 l 486 278 l 69 278 "},"æ":{"ha":1319,"x_min":0,"x_max":0,"o":"m 21 188 b 313 396 21 333 125 396 b 521 319 435 396 499 369 l 521 431 b 417 493 521 486 507 493 b 313 451 333 493 313 479 l 313 438 l 35 438 l 35 465 b 417 708 35 625 125 708 b 661 632 535 708 614 681 b 903 708 710 682 788 708 b 1285 438 1194 708 1285 639 l 1285 285 l 799 285 l 799 264 b 903 194 799 208 819 194 b 1007 229 986 194 1007 201 l 1007 243 l 1285 243 l 1285 229 b 903 -14 1285 49 1194 -14 b 603 110 743 -14 649 28 b 292 -14 575 33 513 -14 b 21 188 111 -14 21 42 m 799 417 l 1007 417 l 1007 438 b 903 500 1007 486 986 500 b 799 431 819 500 799 486 m 382 167 b 521 208 500 167 521 188 b 382 250 521 229 500 250 b 299 208 319 250 299 243 b 382 167 299 174 319 167 "},"ø":{"ha":833,"x_min":0,"x_max":0,"o":"m 306 347 b 308 318 306 338 307 328 l 403 444 b 306 347 331 439 306 400 m 528 347 b 525 376 528 357 526 367 l 431 250 b 528 347 503 256 528 294 m 125 74 b 28 326 58 135 28 222 l 28 368 b 417 708 28 569 139 708 b 585 686 482 708 538 701 l 653 778 l 764 694 l 708 621 b 806 368 775 560 806 472 l 806 326 b 417 -14 806 125 694 -14 b 249 8 351 -14 296 -7 l 181 -83 l 69 0 "},"¿":{"ha":618,"x_min":0,"x_max":0,"o":"m 451 417 l 174 417 l 174 694 l 451 694 m 417 306 b 271 -42 450 124 271 21 b 313 -69 271 -60 285 -69 b 347 -28 340 -69 347 -60 l 347 0 l 590 0 l 590 -83 b 313 -292 590 -222 488 -292 b 28 -69 107 -292 28 -208 b 201 306 28 90 160 154 l 222 382 l 403 382 l 417 306 "},"¡":{"ha":347,"x_min":0,"x_max":0,"o":"m 313 417 l 35 417 l 35 694 l 313 694 m 313 0 l 313 -278 l 35 -278 l 35 0 l 104 347 l 243 347 "},"≈":{"ha":556,"x_min":0,"x_max":0,"o":"m 69 461 b 163 583 69 546 104 583 b 292 535 221 583 264 535 b 313 563 306 535 313 542 l 313 583 l 486 583 l 486 507 b 389 390 486 444 447 390 b 271 438 333 390 299 438 b 250 410 257 438 250 431 l 250 389 l 69 389 m 69 183 b 163 306 69 268 104 306 b 292 257 221 306 264 257 b 313 285 306 257 313 264 l 313 306 l 486 306 l 486 229 b 389 113 486 167 447 113 b 271 160 333 113 299 160 b 250 132 257 160 250 153 l 250 111 l 69 111 "},"«":{"ha":694,"x_min":0,"x_max":0,"o":"m 139 556 l 368 556 l 229 347 l 368 139 l 139 139 l 0 347 m 451 556 l 681 556 l 542 347 l 681 139 l 451 139 l 313 347 "},"»":{"ha":694,"x_min":0,"x_max":0,"o":"m 556 139 l 326 139 l 465 347 l 326 556 l 556 556 l 694 347 m 243 139 l 14 139 l 153 347 l 14 556 l 243 556 l 382 347 "},"…":{"ha":903,"x_min":0,"x_max":0,"o":"m 632 278 l 868 278 l 868 0 l 632 0 m 333 278 l 569 278 l 569 0 l 333 0 m 35 278 l 271 278 l 271 0 l 35 0 "},"À":{"ha":833,"x_min":0,"x_max":0,"o":"m 521 972 b 799 347 743 813 799 625 l 799 0 l 521 0 l 521 208 l 313 208 l 313 0 l 35 0 l 35 347 b 313 972 35 625 90 813 l 317 972 l 285 1007 l 285 1111 l 472 1111 l 510 972 l 521 972 m 517 451 b 417 707 507 568 478 642 b 317 451 356 642 326 568 "},"Ã":{"ha":833,"x_min":0,"x_max":0,"o":"m 208 1058 b 301 1181 208 1143 243 1181 b 431 1132 360 1181 403 1132 b 451 1160 444 1132 451 1139 l 451 1181 l 625 1181 l 625 1104 b 528 988 625 1042 586 988 b 410 1035 472 988 438 1035 b 389 1007 396 1035 389 1028 l 389 986 l 208 986 m 521 972 b 799 347 743 813 799 625 l 799 0 l 521 0 l 521 208 l 313 208 l 313 0 l 35 0 l 35 347 b 313 972 35 625 90 813 l 521 972 m 517 451 b 417 707 507 568 478 642 b 317 451 356 642 326 568 "},"Õ":{"ha":833,"x_min":0,"x_max":0,"o":"m 208 1058 b 301 1181 208 1143 243 1181 b 431 1132 360 1181 403 1132 b 451 1160 444 1132 451 1139 l 451 1181 l 625 1181 l 625 1104 b 528 988 625 1042 586 988 b 410 1035 472 988 438 1035 b 389 1007 396 1035 389 1028 l 389 986 l 208 986 m 417 694 b 313 604 333 694 313 674 l 313 368 b 417 278 313 299 333 278 b 521 368 500 278 521 299 l 521 604 b 417 694 521 674 500 694 m 375 0 b 35 340 160 0 35 97 l 35 632 b 375 972 35 875 160 972 l 458 972 b 799 632 674 972 799 875 l 799 340 b 458 0 799 97 674 0 l 375 0 "},"Œ":{"ha":1319,"x_min":0,"x_max":0,"o":"m 417 694 b 313 604 333 694 313 674 l 313 368 b 417 278 313 299 333 278 b 521 368 500 278 521 299 l 521 604 b 417 694 521 674 500 694 m 375 0 b 35 340 160 0 35 97 l 35 632 b 375 972 35 875 160 972 l 417 972 b 628 889 510 972 581 946 l 694 972 l 1285 972 l 1285 694 l 799 694 l 799 590 l 1215 590 l 1215 347 l 799 347 l 799 278 l 1285 278 l 1285 0 l 694 0 l 628 83 b 417 0 581 26 510 0 l 375 0 "},"œ":{"ha":1326,"x_min":0,"x_max":0,"o":"m 417 -14 b 28 326 139 -14 28 125 l 28 368 b 417 708 28 569 139 708 b 650 632 514 708 582 676 b 910 708 719 675 796 708 b 1292 438 1201 708 1292 639 l 1292 285 l 806 285 l 806 264 b 910 194 806 210 826 194 b 1014 229 993 194 1014 204 l 1014 243 l 1292 243 l 1292 229 b 910 -14 1292 46 1201 -14 b 650 49 796 -14 715 7 b 417 -14 588 7 514 -14 m 806 417 l 1014 417 l 1014 438 b 910 500 1014 486 993 500 b 806 431 826 500 806 485 m 417 250 b 528 347 500 250 528 290 b 417 444 528 404 500 444 b 306 347 333 444 306 404 b 417 250 306 290 333 250 "},"–":{"ha":833,"x_min":0,"x_max":0,"o":"m 69 215 l 69 479 l 764 479 l 764 215 "},"—":{"ha":1389,"x_min":0,"x_max":0,"o":"m 69 215 l 69 479 l 1319 479 l 1319 215 "},"“":{"ha":625,"x_min":0,"x_max":0,"o":"m 549 694 l 549 556 l 403 556 l 340 764 l 340 972 l 590 972 l 590 694 m 243 694 l 243 556 l 97 556 l 35 764 l 35 972 l 285 972 l 285 694 "},"”":{"ha":625,"x_min":0,"x_max":0,"o":"m 35 972 l 285 972 l 285 764 l 222 556 l 76 556 l 76 694 l 35 694 m 340 972 l 590 972 l 590 764 l 528 556 l 382 556 l 382 694 l 340 694 "},"‘":{"ha":347,"x_min":0,"x_max":0,"o":"m 271 694 l 271 556 l 97 556 l 35 764 l 35 972 l 313 972 l 313 694 "},"’":{"ha":347,"x_min":0,"x_max":0,"o":"m 35 972 l 313 972 l 313 764 l 250 556 l 76 556 l 76 694 l 35 694 "},"÷":{"ha":833,"x_min":0,"x_max":0,"o":"m 313 764 l 521 764 l 521 556 l 313 556 m 69 278 l 69 486 l 764 486 l 764 278 m 313 208 l 521 208 l 521 0 l 313 0 "},"ÿ":{"ha":833,"x_min":0,"x_max":0,"o":"m 229 972 l 396 972 l 396 799 l 243 799 m 438 972 l 604 972 l 590 799 l 438 799 m 799 556 b 556 24 799 358 749 161 l 556 -278 l 278 -278 l 278 24 b 35 556 85 161 35 358 l 35 694 l 313 694 l 313 556 b 417 261 313 415 338 339 b 521 556 496 339 521 415 l 521 694 l 799 694 l 799 556 "},"Ÿ":{"ha":833,"x_min":0,"x_max":0,"o":"m 229 1181 l 396 1181 l 396 1007 l 243 1007 m 438 1181 l 604 1181 l 590 1007 l 438 1007 m 278 301 b 35 833 85 439 35 636 l 35 972 l 313 972 l 313 833 b 417 513 313 693 338 601 b 521 833 496 601 521 693 l 521 972 l 799 972 l 799 833 b 556 301 799 636 749 439 l 556 0 l 278 0 "},"⁄":{"ha":278,"x_min":0,"x_max":0,"o":"m 389 972 l 556 972 l -111 0 l -278 0 "},"¤":{"ha":556,"x_min":0,"x_max":0,"o":"m 97 764 l 182 679 b 278 694 210 690 242 694 b 374 679 314 694 346 690 l 458 764 l 556 667 l 471 582 b 486 486 481 556 486 524 b 471 390 486 449 481 417 l 556 306 l 458 208 l 374 293 b 278 278 346 282 314 278 b 182 293 242 278 210 282 l 97 208 l 0 306 l 85 390 b 69 486 75 417 69 449 b 85 582 69 524 75 556 l 0 667 m 368 486 b 278 576 368 556 347 576 b 188 486 215 576 188 556 b 278 396 188 424 215 396 b 368 486 347 396 368 424 "},"‹":{"ha":417,"x_min":0,"x_max":0,"o":"m 139 556 l 403 556 l 264 347 l 403 139 l 139 139 l 0 347 "},"›":{"ha":417,"x_min":0,"x_max":0,"o":"m 278 139 l 14 139 l 153 347 l 14 556 l 278 556 l 417 347 "},"‡":{"ha":833,"x_min":0,"x_max":0,"o":"m 174 278 l 289 268 l 278 347 l 289 426 l 174 417 l 35 417 l 35 694 l 174 694 l 292 681 l 278 799 l 278 972 l 556 972 l 556 799 l 542 681 l 660 694 l 799 694 l 799 417 l 660 417 l 544 426 l 556 347 l 544 268 l 660 278 l 799 278 l 799 0 l 660 0 l 542 14 l 556 -104 l 556 -278 l 278 -278 l 278 -104 l 292 14 l 174 0 l 35 0 l 35 278 "},"·":{"ha":347,"x_min":0,"x_max":0,"o":"m 35 521 l 313 521 l 313 243 l 35 243 "},"‚":{"ha":347,"x_min":0,"x_max":0,"o":"m 35 139 l 313 139 l 313 -69 l 250 -278 l 76 -278 l 76 -139 l 35 -139 "},"„":{"ha":625,"x_min":0,"x_max":0,"o":"m 35 139 l 285 139 l 285 -69 l 222 -278 l 76 -278 l 76 -139 l 35 -139 m 340 139 l 590 139 l 590 -69 l 528 -278 l 382 -278 l 382 -139 l 340 -139 "},"‰":{"ha":1389,"x_min":0,"x_max":0,"o":"m 500 764 b 278 542 500 611 417 542 b 56 764 139 542 56 611 b 278 986 56 917 139 986 b 500 764 417 986 500 917 m 806 972 l 972 972 l 306 0 l 139 0 m 375 764 b 278 861 375 833 347 861 b 181 764 208 861 181 833 b 278 667 181 694 208 667 b 375 764 347 667 375 694 m 1125 -14 b 972 49 1056 -14 1007 7 b 819 -14 938 7 889 -14 b 611 208 694 -14 611 56 b 819 431 611 361 694 431 b 972 368 889 431 938 410 b 1125 431 1007 410 1056 431 b 1333 208 1250 431 1333 361 b 1125 -14 1333 56 1250 -14 m 819 306 b 736 208 757 306 736 278 b 819 111 736 139 757 111 b 910 194 882 111 910 139 l 910 222 b 819 306 910 278 882 306 m 1125 306 b 1035 222 1063 306 1035 278 l 1035 194 b 1125 111 1035 139 1063 111 b 1208 208 1188 111 1208 139 b 1125 306 1208 278 1188 306 "},"Â":{"ha":833,"x_min":0,"x_max":0,"o":"m 354 1111 l 479 1111 l 590 986 l 590 917 b 799 347 756 768 799 593 l 799 0 l 521 0 l 521 208 l 313 208 l 313 0 l 35 0 l 35 347 b 243 917 35 593 78 768 l 243 986 m 428 972 l 417 997 l 406 972 m 517 451 b 417 707 507 568 478 642 b 317 451 356 642 326 568 "},"Ê":{"ha":833,"x_min":0,"x_max":0,"o":"m 35 972 l 243 972 l 243 986 l 354 1111 l 479 1111 l 590 986 l 590 972 l 799 972 l 799 694 l 313 694 l 313 590 l 729 590 l 729 347 l 313 347 l 313 278 l 799 278 l 799 0 l 35 0 m 428 972 l 417 997 l 406 972 "},"Á":{"ha":833,"x_min":0,"x_max":0,"o":"m 521 972 b 799 347 743 813 799 625 l 799 0 l 521 0 l 521 208 l 313 208 l 313 0 l 35 0 l 35 347 b 313 972 35 625 90 813 l 324 972 l 361 1111 l 549 1111 l 549 1007 l 517 972 l 521 972 m 517 451 b 417 707 507 568 478 642 b 317 451 356 642 326 568 "},"Ë":{"ha":833,"x_min":0,"x_max":0,"o":"m 35 972 l 240 972 l 229 1111 l 396 1111 l 396 972 l 438 972 l 438 1111 l 604 1111 l 593 972 l 799 972 l 799 694 l 313 694 l 313 590 l 729 590 l 729 347 l 313 347 l 313 278 l 799 278 l 799 0 l 35 0 "},"È":{"ha":833,"x_min":0,"x_max":0,"o":"m 35 972 l 331 972 l 299 1007 l 299 1111 l 486 1111 l 524 972 l 799 972 l 799 694 l 313 694 l 313 590 l 729 590 l 729 347 l 313 347 l 313 278 l 799 278 l 799 0 l 35 0 "},"Í":{"ha":347,"x_min":0,"x_max":0,"o":"m 35 972 l 107 972 l 163 1181 l 350 1181 l 350 1076 l 253 972 l 313 972 l 313 0 l 35 0 "},"Î":{"ha":347,"x_min":0,"x_max":0,"o":"m 174 1067 l 132 972 l 215 972 m 35 972 l 0 972 l 0 1056 l 111 1181 l 236 1181 l 347 1056 l 347 972 l 313 972 l 313 0 l 35 0 "},"Ï":{"ha":347,"x_min":0,"x_max":0,"o":"m -14 1181 l 153 1181 l 153 1007 l 0 1007 m 194 1181 l 361 1181 l 347 1007 l 194 1007 m 35 972 l 313 972 l 313 0 l 35 0 "},"Ì":{"ha":347,"x_min":0,"x_max":0,"o":"m 35 972 l 108 972 l 11 1076 l 11 1181 l 199 1181 l 254 972 l 313 972 l 313 0 l 35 0 "},"Ó":{"ha":833,"x_min":0,"x_max":0,"o":"m 417 694 b 313 604 333 694 313 674 l 313 368 b 417 278 313 299 333 278 b 521 368 500 278 521 299 l 521 604 b 417 694 521 674 500 694 m 375 0 b 35 340 160 0 35 97 l 35 632 b 338 971 35 861 146 960 l 375 1111 l 563 1111 l 563 1007 l 526 968 b 799 632 700 949 799 849 l 799 340 b 458 0 799 97 674 0 l 375 0 "},"Ô":{"ha":833,"x_min":0,"x_max":0,"o":"m 417 694 b 313 604 333 694 313 674 l 313 368 b 417 278 313 299 333 278 b 521 368 500 278 521 299 l 521 604 b 417 694 521 674 500 694 m 406 972 l 428 972 l 417 997 m 375 0 b 35 340 160 0 35 97 l 35 632 b 243 957 35 819 110 921 l 243 986 l 354 1111 l 479 1111 l 590 986 l 590 957 b 799 632 724 921 799 819 l 799 340 b 458 0 799 97 674 0 l 375 0 "},"Ò":{"ha":833,"x_min":0,"x_max":0,"o":"m 417 694 b 313 604 333 694 313 674 l 313 368 b 417 278 313 299 333 278 b 521 368 500 278 521 299 l 521 604 b 417 694 521 674 500 694 m 375 0 b 35 340 160 0 35 97 l 35 632 b 319 969 35 853 139 954 l 285 1007 l 285 1111 l 472 1111 l 510 971 b 799 632 693 956 799 856 l 799 340 b 458 0 799 97 674 0 l 375 0 "},"Ú":{"ha":833,"x_min":0,"x_max":0,"o":"m 406 1181 l 593 1181 l 593 1076 l 496 972 l 350 972 m 375 0 b 35 340 160 0 35 97 l 35 972 l 313 972 l 313 368 b 417 278 313 299 333 278 b 521 368 500 278 521 299 l 521 972 l 799 972 l 799 340 b 458 0 799 97 674 0 l 375 0 "},"Û":{"ha":833,"x_min":0,"x_max":0,"o":"m 417 1067 l 375 972 l 313 972 l 313 368 b 417 278 313 299 333 278 b 521 368 500 278 521 299 l 521 972 l 458 972 m 375 0 b 35 340 160 0 35 97 l 35 972 l 243 972 l 243 1056 l 354 1181 l 479 1181 l 590 1056 l 590 972 l 799 972 l 799 340 b 458 0 799 97 674 0 l 375 0 "},"Ù":{"ha":833,"x_min":0,"x_max":0,"o":"m 351 972 l 254 1076 l 254 1181 l 442 1181 l 497 972 m 375 0 b 35 340 160 0 35 97 l 35 972 l 313 972 l 313 368 b 417 278 313 299 333 278 b 521 368 500 278 521 299 l 521 972 l 799 972 l 799 340 b 458 0 799 97 674 0 l 375 0 "},"ı":{"ha":347,"x_min":0,"x_max":0,"o":"m 35 694 l 313 694 l 313 0 l 35 0 "},"ˆ":{"ha":278,"x_min":0,"x_max":0,"o":"m -35 847 l 76 972 l 201 972 l 313 847 l 313 764 l 181 764 l 139 858 l 97 764 l -35 764 "},"˜":{"ha":278,"x_min":0,"x_max":0,"o":"m -69 850 b 24 972 -69 935 -35 972 b 153 924 82 972 125 924 b 174 951 167 924 174 931 l 174 972 l 347 972 l 347 896 b 250 779 347 833 308 779 b 132 826 194 779 160 826 b 111 799 118 826 111 819 l 111 778 l -69 778 "},"˙":{"ha":347,"x_min":0,"x_max":0,"o":"m 285 886 b 174 792 285 824 243 792 b 63 886 104 792 63 824 b 174 979 63 950 104 979 b 285 886 243 979 285 950 "},"˚":{"ha":694,"x_min":0,"x_max":0,"o":"m 486 917 b 278 750 486 806 424 750 b 69 917 132 750 69 806 b 278 1083 69 1028 132 1083 b 486 917 424 1083 486 1028 m 368 917 b 278 972 368 951 354 972 b 188 917 201 972 188 951 b 278 861 188 882 201 861 b 368 917 354 861 368 882 "},"¸":{"ha":347,"x_min":0,"x_max":0,"o":"m 222 0 l 222 -35 b 319 -139 285 -35 319 -69 b 139 -278 319 -236 250 -278 l 56 -278 l 69 -153 l 139 -153 b 188 -125 174 -153 188 -146 b 111 -104 188 -111 174 -104 l 125 0 "},"ˇ":{"ha":278,"x_min":0,"x_max":0,"o":"m 97 972 l 139 879 l 181 972 l 313 972 l 313 889 l 201 764 l 76 764 l -35 889 l -35 972 "},"İ":{"ha":347,"x_min":0,"x_max":0,"o":"m 35 972 l 128 972 b 63 1061 86 983 63 1014 b 174 1154 63 1125 104 1154 b 285 1061 243 1154 285 1125 b 218 972 285 1014 261 983 l 313 972 l 313 0 l 35 0 "},"Ĩ":{"ha":347,"x_min":0,"x_max":0,"o":"m -35 1058 b 58 1181 -35 1143 0 1181 b 188 1132 117 1181 160 1132 b 208 1160 201 1132 208 1139 l 208 1181 l 382 1181 l 382 1104 b 285 988 382 1042 343 988 b 167 1035 229 988 194 1035 b 146 1007 153 1035 146 1028 l 146 986 l -35 986 m 35 972 l 313 972 l 313 0 l 35 0 "},"Ĳ":{"ha":694,"x_min":0,"x_max":0,"o":"m 35 972 l 313 972 l 313 410 l 35 410 m 35 347 l 313 347 l 313 292 b 347 264 313 271 326 264 b 382 299 368 264 382 271 l 382 972 l 660 972 l 660 264 b 347 -14 660 69 549 -14 b 35 250 132 -14 35 56 "},"Ũ":{"ha":833,"x_min":0,"x_max":0,"o":"m 208 1058 b 301 1181 208 1143 243 1181 b 431 1132 360 1181 403 1132 b 451 1160 444 1132 451 1139 l 451 1181 l 625 1181 l 625 1104 b 528 988 625 1042 586 988 b 410 1035 472 988 438 1035 b 389 1007 396 1035 389 1028 l 389 986 l 208 986 m 375 0 b 35 340 160 0 35 97 l 35 972 l 313 972 l 313 368 b 417 278 313 299 333 278 b 521 368 500 278 521 299 l 521 972 l 799 972 l 799 340 b 458 0 799 97 674 0 l 375 0 "},"Ŷ":{"ha":833,"x_min":0,"x_max":0,"o":"m 278 301 b 35 833 85 439 35 636 l 35 972 l 243 972 l 243 1056 l 354 1181 l 479 1181 l 590 1056 l 590 972 l 799 972 l 799 833 b 556 301 799 636 749 439 l 556 0 l 278 0 m 417 1067 l 375 972 l 313 972 l 313 833 b 417 513 313 693 338 601 b 521 833 496 601 521 693 l 521 972 l 458 972 "},"Ỳ":{"ha":833,"x_min":0,"x_max":0,"o":"m 351 972 l 254 1076 l 254 1181 l 442 1181 l 497 972 m 278 301 b 35 833 85 439 35 636 l 35 972 l 313 972 l 313 833 b 417 513 313 693 338 601 b 521 833 496 601 521 693 l 521 972 l 799 972 l 799 833 b 556 301 799 636 749 439 l 556 0 l 278 0 "},"Ź":{"ha":833,"x_min":0,"x_max":0,"o":"m 35 0 l 35 264 l 431 708 l 278 694 l 35 694 l 35 972 l 333 972 l 389 1181 l 576 1181 l 576 1076 l 479 972 l 799 972 l 799 708 l 396 264 l 556 278 l 799 278 l 799 0 "},"ĩ":{"ha":347,"x_min":0,"x_max":0,"o":"m -35 850 b 58 972 -35 935 0 972 b 188 924 117 972 160 924 b 208 951 201 924 208 931 l 208 972 l 382 972 l 382 896 b 285 779 382 833 343 779 b 167 826 229 779 194 826 b 146 799 153 826 146 819 l 146 778 l -35 778 m 35 694 l 313 694 l 313 0 l 35 0 "},"ĳ":{"ha":694,"x_min":0,"x_max":0,"o":"m 382 972 l 660 972 l 660 757 l 382 757 m 35 972 l 313 972 l 313 757 l 35 757 m 347 -97 b 382 -67 368 -97 382 -94 l 382 694 l 660 694 l 660 -35 b 347 -292 660 -204 550 -292 b 35 -81 129 -292 35 -215 l 35 -54 l 313 -54 l 313 -74 b 347 -97 313 -92 326 -97 m 35 694 l 313 694 l 313 0 l 35 0 "},"":{"ha":347,"x_min":0,"x_max":0,"o":"m -28 -278 l -28 -69 l 0 -69 b 35 -35 21 -69 35 -62 l 35 694 l 313 694 l 313 -35 b 0 -278 313 -194 203 -278 "},"ũ":{"ha":833,"x_min":0,"x_max":0,"o":"m 208 850 b 301 972 208 935 243 972 b 431 924 360 972 403 924 b 451 951 444 924 451 931 l 451 972 l 625 972 l 625 896 b 528 779 625 833 586 779 b 410 826 472 779 438 826 b 389 799 396 826 389 819 l 389 778 l 208 778 m 521 104 b 313 -14 500 28 424 -14 b 35 340 104 -14 35 104 l 35 694 l 313 694 l 313 354 b 417 264 313 299 340 264 b 521 354 493 264 521 299 l 521 694 l 799 694 l 799 0 l 556 0 l 521 104 "},"ŷ":{"ha":833,"x_min":0,"x_max":0,"o":"m 243 847 l 354 972 l 479 972 l 590 847 l 590 764 l 458 764 l 417 858 l 375 764 l 243 764 m 799 556 b 556 24 799 358 749 161 l 556 -278 l 278 -278 l 278 24 b 35 556 85 161 35 358 l 35 694 l 313 694 l 313 556 b 417 261 313 415 338 339 b 521 556 496 339 521 415 l 521 694 l 799 694 l 799 556 "},"ỳ":{"ha":833,"x_min":0,"x_max":0,"o":"m 351 764 l 254 868 l 254 972 l 442 972 l 497 764 m 799 556 b 556 24 799 358 749 161 l 556 -278 l 278 -278 l 278 24 b 35 556 85 161 35 358 l 35 694 l 313 694 l 313 556 b 417 261 313 415 338 339 b 521 556 496 339 521 415 l 521 694 l 799 694 l 799 556 "},"ⁱ":{"ha":278,"x_min":0,"x_max":0,"o":"m 76 1021 l 76 1111 l 201 1111 l 201 1021 m 201 556 l 76 556 l 76 972 l 201 972 "},"ⁿ":{"ha":556,"x_min":0,"x_max":0,"o":"m 69 972 l 160 972 l 181 889 l 194 889 b 333 986 208 944 256 986 b 486 778 444 986 486 917 l 486 556 l 361 556 l 361 785 b 278 861 361 840 333 861 b 194 785 222 861 194 840 l 194 556 l 69 556 "},"€":{"ha":833,"x_min":0,"x_max":0,"o":"m 14 472 l 35 472 l 35 500 l 7 500 l 21 639 l 35 639 b 375 972 38 878 161 972 l 458 972 b 799 667 675 972 799 875 l 799 556 l 521 556 l 521 604 b 417 694 521 674 493 694 b 315 639 350 694 322 681 l 465 639 l 444 500 l 313 500 l 313 472 l 444 472 l 424 333 l 315 333 b 417 278 322 292 350 278 b 521 368 493 278 521 299 l 521 417 l 799 417 l 799 306 b 458 0 799 97 675 0 l 375 0 b 35 333 158 0 35 97 l 0 333 "},"╋":{"ha":1389,"x_min":0,"x_max":0,"o":"m 69 417 l 625 417 l 625 972 l 764 972 l 764 417 l 1319 417 l 1319 278 l 764 278 l 764 -278 l 625 -278 l 625 278 l 69 278 "},"⬜":{"ha":1389,"x_min":0,"x_max":0,"o":"m 69 972 l 1319 972 l 1319 -278 l 69 -278 m 1181 -139 l 1181 833 l 208 833 l 208 -139 "},"▢":{"ha":1389,"x_min":0,"x_max":0,"o":"m 375 -278 b 69 28 167 -278 69 -167 l 69 667 b 375 972 69 875 181 972 l 1014 972 b 1319 667 1222 972 1319 861 l 1319 28 b 1014 -278 1319 -181 1208 -278 l 375 -278 m 972 -139 b 1181 63 1139 -139 1181 -97 l 1181 625 b 979 833 1181 792 1139 833 l 417 833 b 208 632 250 833 208 792 l 208 69 b 410 -139 208 -97 250 -139 l 972 -139 "},"⬛":{"ha":1389,"x_min":0,"x_max":0,"o":"m 69 972 l 1319 972 l 1319 -278 l 69 -278 "},"⬚":{"ha":1389,"x_min":0,"x_max":0,"o":"m 69 972 l 1319 972 l 1319 -278 l 69 -278 m 1181 -139 l 1181 833 l 208 833 l 208 -139 m 694 97 b 444 347 535 97 444 181 b 694 597 444 514 535 597 b 944 347 861 597 944 514 b 694 97 944 181 861 97 "},"⧈":{"ha":1389,"x_min":0,"x_max":0,"o":"m 69 972 l 1319 972 l 1319 -278 l 69 -278 m 208 417 l 625 417 l 625 833 l 208 833 m 764 833 l 764 417 l 1181 417 l 1181 833 m 625 -139 l 625 278 l 208 278 l 208 -139 m 1181 278 l 764 278 l 764 -139 l 1181 -139 "},"▣":{"ha":1389,"x_min":0,"x_max":0,"o":"m 69 972 l 1319 972 l 1319 -278 l 69 -278 m 1181 -139 l 1181 833 l 208 833 l 208 -139 m 486 556 l 903 556 l 903 139 l 486 139 "},"▪":{"ha":1389,"x_min":0,"x_max":0,"o":"m 417 625 l 972 625 l 972 69 l 417 69 "},"▫":{"ha":1389,"x_min":0,"x_max":0,"o":"m 417 625 l 972 625 l 972 69 l 417 69 m 833 208 l 833 486 l 556 486 l 556 208 "},"◆":{"ha":1389,"x_min":0,"x_max":0,"o":"m 7 347 l 694 1035 l 1382 347 l 694 -340 "},"◇":{"ha":1389,"x_min":0,"x_max":0,"o":"m 7 347 l 694 1035 l 1382 347 l 694 -340 m 1188 347 l 694 840 l 201 347 l 694 -146 "},"◈":{"ha":1389,"x_min":0,"x_max":0,"o":"m 7 347 l 694 1035 l 1382 347 l 694 -340 m 1188 347 l 694 840 l 201 347 l 694 -146 m 351 347 l 694 692 l 1039 347 l 694 4 "},"◧":{"ha":1389,"x_min":0,"x_max":0,"o":"m 69 972 l 1319 972 l 1319 -278 l 69 -278 m 1181 -139 l 1181 833 l 694 833 l 694 -139 "},"◨":{"ha":1389,"x_min":0,"x_max":0,"o":"m 69 972 l 1319 972 l 1319 -278 l 69 -278 m 694 -139 l 694 833 l 208 833 l 208 -139 "},"◩":{"ha":1389,"x_min":0,"x_max":0,"o":"m 1319 -278 l 69 -278 l 69 972 l 1319 972 m 208 -139 l 1181 -139 l 1181 833 "},"◪":{"ha":1389,"x_min":0,"x_max":0,"o":"m 69 972 l 1319 972 l 1319 -278 l 69 -278 m 1181 833 l 208 833 l 208 -139 "},"◫":{"ha":1389,"x_min":0,"x_max":0,"o":"m 69 972 l 1319 972 l 1319 -278 l 69 -278 m 625 -139 l 625 833 l 208 833 l 208 -139 m 764 833 l 764 -139 l 1181 -139 l 1181 833 "},"▥":{"ha":1389,"x_min":0,"x_max":0,"o":"m 69 972 l 1319 972 l 1319 -278 l 69 -278 m 347 -139 l 347 833 l 208 833 l 208 -139 m 625 -139 l 625 833 l 486 833 l 486 -139 m 903 -139 l 903 833 l 764 833 l 764 -139 m 1042 833 l 1042 -139 l 1181 -139 l 1181 833 "},"▤":{"ha":1389,"x_min":0,"x_max":0,"o":"m 69 972 l 1319 972 l 1319 -278 l 69 -278 m 208 694 l 1181 694 l 1181 833 l 208 833 m 1181 417 l 1181 556 l 208 556 l 208 417 m 1181 139 l 1181 278 l 208 278 l 208 139 m 1181 -139 l 1181 0 l 208 0 l 208 -139 "},"▧":{"ha":1389,"x_min":0,"x_max":0,"o":"m 69 972 l 1319 972 l 1319 -278 l 69 -278 m 1181 -42 l 1181 153 l 500 833 l 306 833 m 1181 347 l 1181 542 l 889 833 l 694 833 m 1083 833 l 1181 736 l 1181 833 m 1083 -139 l 208 736 l 208 542 l 889 -139 m 694 -139 l 208 347 l 208 153 l 500 -139 m 306 -139 l 208 -42 l 208 -139 "},"▨":{"ha":1389,"x_min":0,"x_max":0,"o":"m 69 -278 l 69 972 l 1319 972 l 1319 -278 m 208 736 l 306 833 l 208 833 m 208 347 l 694 833 l 500 833 l 208 542 m 208 -42 l 1083 833 l 889 833 l 208 153 m 500 -139 l 1181 542 l 1181 736 l 306 -139 m 889 -139 l 1181 153 l 1181 347 l 694 -139 m 1181 -42 l 1083 -139 l 1181 -139 "},"▩":{"ha":1389,"x_min":0,"x_max":0,"o":"m 69 972 l 1319 972 l 1319 -278 l 69 -278 m 463 678 l 618 833 l 306 833 m 928 678 l 1083 833 l 771 833 m 208 424 l 365 581 l 208 736 m 1181 424 l 1181 736 l 1025 581 m 694 444 l 831 581 l 694 715 l 560 581 m 463 213 l 597 347 l 463 483 l 326 347 m 928 213 l 1063 347 l 928 483 l 792 347 m 365 115 l 208 271 l 208 -42 m 1181 271 l 1025 115 l 1181 -42 m 694 -21 l 831 115 l 694 250 l 560 115 m 618 -139 l 463 18 l 306 -139 m 1083 -139 l 928 18 l 771 -139 "},"◰":{"ha":1389,"x_min":0,"x_max":0,"o":"m 69 972 l 1319 972 l 1319 -278 l 69 -278 m 208 417 l 625 417 l 625 833 l 208 833 m 1181 -139 l 1181 833 l 764 833 l 764 278 l 208 278 l 208 -139 "},"◱":{"ha":1389,"x_min":0,"x_max":0,"o":"m 1319 972 l 1319 -278 l 69 -278 l 69 972 m 208 417 l 764 417 l 764 -139 l 1181 -139 l 1181 833 l 208 833 m 625 -139 l 625 278 l 208 278 l 208 -139 "},"◲":{"ha":1389,"x_min":0,"x_max":0,"o":"m 69 -278 l 69 972 l 1319 972 l 1319 -278 m 625 833 l 208 833 l 208 -139 l 1181 -139 l 1181 278 l 625 278 m 764 833 l 764 417 l 1181 417 l 1181 833 "},"◳":{"ha":1389,"x_min":0,"x_max":0,"o":"m 1319 -278 l 69 -278 l 69 972 l 1319 972 m 1181 417 l 1181 833 l 208 833 l 208 -139 l 625 -139 l 625 417 m 1181 278 l 764 278 l 764 -139 l 1181 -139 "},"⛋":{"ha":1389,"x_min":0,"x_max":0,"o":"m 69 972 l 1319 972 l 1319 -278 l 69 -278 m 208 424 l 618 833 l 208 833 m 771 833 l 1181 424 l 1181 833 m 694 -21 l 1063 347 l 694 715 l 326 347 m 618 -139 l 208 271 l 208 -139 m 1181 271 l 771 -139 l 1181 -139 "},"○":{"ha":1389,"x_min":0,"x_max":0,"o":"m 694 -292 b 56 347 278 -292 56 -76 b 694 986 56 764 278 986 b 1333 347 1111 986 1333 764 b 694 -292 1333 -76 1111 -292 m 694 -153 b 1194 347 1021 -153 1194 14 b 694 847 1194 674 1021 847 b 194 347 368 847 194 674 b 694 -153 194 14 368 -153 "},"●":{"ha":1389,"x_min":0,"x_max":0,"o":"m 694 -292 b 56 347 278 -292 56 -76 b 694 986 56 764 278 986 b 1333 347 1111 986 1333 764 b 694 -292 1333 -76 1111 -292 "},"◉":{"ha":1389,"x_min":0,"x_max":0,"o":"m 694 -292 b 56 347 278 -292 56 -76 b 694 986 56 764 278 986 b 1333 347 1111 986 1333 764 b 694 -292 1333 -76 1111 -292 m 694 -153 b 1194 347 1021 -153 1194 14 b 694 847 1194 674 1021 847 b 194 347 368 847 194 674 b 694 -153 194 14 368 -153 m 694 97 b 444 347 535 97 444 181 b 694 597 444 514 535 597 b 944 347 861 597 944 514 b 694 97 944 181 861 97 "},"◎":{"ha":1389,"x_min":0,"x_max":0,"o":"m 694 -292 b 56 347 278 -292 56 -76 b 694 986 56 764 278 986 b 1333 347 1111 986 1333 764 b 694 -292 1333 -76 1111 -292 m 694 -153 b 1194 347 1021 -153 1194 14 b 694 847 1194 674 1021 847 b 194 347 368 847 194 674 b 694 -153 194 14 368 -153 m 694 -17 b 331 347 457 -17 331 106 b 694 711 331 585 457 711 b 1058 347 932 711 1058 585 b 694 -17 1058 106 932 -17 m 694 119 b 922 347 844 119 922 197 b 694 575 922 497 844 575 b 467 347 544 575 467 497 b 694 119 467 197 544 119 "},"◌":{"ha":1389,"x_min":0,"x_max":0,"o":"m 694 1000 b 778 917 743 1000 778 965 b 694 833 778 868 743 833 b 611 917 646 833 611 868 b 694 1000 611 965 646 1000 m 375 931 b 458 847 424 931 458 896 b 375 764 458 799 424 764 b 292 847 326 764 292 799 b 375 931 292 896 326 931 m 1014 931 b 1097 847 1063 931 1097 896 b 1014 764 1097 799 1063 764 b 931 847 965 764 931 799 b 1014 931 931 896 965 931 m 174 715 b 257 632 222 715 257 681 b 174 549 257 583 222 549 b 90 632 125 549 90 583 b 174 715 90 681 125 715 m 1215 715 b 1299 632 1264 715 1299 681 b 1215 549 1299 583 1264 549 b 1132 632 1167 549 1132 583 b 1215 715 1132 681 1167 715 m 125 264 b 42 347 76 264 42 299 b 125 431 42 396 76 431 b 208 347 174 431 208 396 b 125 264 208 299 174 264 m 1264 264 b 1181 347 1215 264 1181 299 b 1264 431 1181 396 1215 431 b 1347 347 1313 431 1347 396 b 1264 264 1347 299 1313 264 m 174 -21 b 90 63 125 -21 90 14 b 174 146 90 111 125 146 b 257 63 222 146 257 111 b 174 -21 257 14 222 -21 m 1215 -21 b 1132 63 1167 -21 1132 14 b 1215 146 1132 111 1167 146 b 1299 63 1264 146 1299 111 b 1215 -21 1299 14 1264 -21 m 375 -236 b 292 -153 326 -236 292 -201 b 375 -69 292 -104 326 -69 b 458 -153 424 -69 458 -104 b 375 -236 458 -201 424 -236 m 1014 -236 b 931 -153 965 -236 931 -201 b 1014 -69 931 -104 965 -69 b 1097 -153 1063 -69 1097 -104 b 1014 -236 1097 -201 1063 -236 m 694 -306 b 611 -222 646 -306 611 -271 b 694 -139 611 -174 646 -139 b 778 -222 743 -139 778 -174 b 694 -306 778 -271 743 -306 "},"◍":{"ha":1389,"x_min":0,"x_max":0,"o":"m 694 -292 b 56 347 278 -292 56 -76 b 694 986 56 764 278 986 b 1333 347 1111 986 1333 764 b 694 -292 1333 -76 1111 -292 m 764 -150 b 903 -124 814 -146 861 -137 l 903 818 b 764 844 861 831 814 840 m 486 -124 b 625 -150 528 -137 575 -146 l 625 844 b 486 818 575 840 528 831 l 486 -124 m 194 347 b 347 -50 194 165 246 32 l 347 743 b 194 347 246 658 194 526 m 1194 347 b 1042 743 1194 526 1143 658 l 1042 -50 b 1194 347 1143 32 1194 165 "},"◐":{"ha":1389,"x_min":0,"x_max":0,"o":"m 694 -292 b 56 347 278 -292 56 -76 b 694 986 56 764 278 986 b 1333 347 1111 986 1333 764 b 694 -292 1333 -76 1111 -292 m 694 847 b 194 347 368 847 194 674 b 694 -153 194 14 368 -153 "},"◑":{"ha":1389,"x_min":0,"x_max":0,"o":"m 694 -292 b 56 347 278 -292 56 -76 b 694 986 56 764 278 986 b 1333 347 1111 986 1333 764 b 694 -292 1333 -76 1111 -292 m 694 -153 b 1194 347 1021 -153 1194 14 b 694 847 1194 674 1021 847 l 694 -153 "},"◒":{"ha":1389,"x_min":0,"x_max":0,"o":"m 1333 347 b 694 -292 1333 -69 1118 -292 b 56 347 278 -292 56 -69 b 694 986 56 764 278 986 b 1333 347 1118 986 1333 764 m 1194 347 b 694 847 1194 674 1028 847 b 194 347 368 847 194 674 l 1194 347 "},"ɓ":{"ha":1389,"x_min":0,"x_max":0,"o":"m 1333 347 b 694 -292 1333 -69 1118 -292 b 56 347 278 -292 56 -69 b 694 986 56 764 278 986 b 1333 347 1118 986 1333 764 m 194 347 b 694 -153 194 21 368 -153 b 1194 347 1028 -153 1194 21 "},"◔":{"ha":1389,"x_min":0,"x_max":0,"o":"m 694 -292 b 56 347 278 -292 56 -76 b 694 986 56 764 278 986 b 1333 347 1111 986 1333 764 b 694 -292 1333 -76 1111 -292 m 694 -153 b 1194 347 1021 -153 1194 14 l 694 347 l 694 847 b 194 347 368 847 194 674 b 694 -153 194 14 368 -153 "},"◕":{"ha":1389,"x_min":0,"x_max":0,"o":"m 694 -292 b 56 347 278 -292 56 -76 b 694 986 56 764 278 986 b 1333 347 1111 986 1333 764 b 694 -292 1333 -76 1111 -292 m 694 847 b 194 347 368 847 194 674 l 694 347 "},"◢":{"ha":1389,"x_min":0,"x_max":0,"o":"m 1319 972 l 1319 -278 l 69 -278 "},"◣":{"ha":1389,"x_min":0,"x_max":0,"o":"m 69 -278 l 69 972 l 1319 -278 "},"◤":{"ha":1389,"x_min":0,"x_max":0,"o":"m 69 -278 l 69 972 l 1319 972 "},"◥":{"ha":1389,"x_min":0,"x_max":0,"o":"m 1319 972 l 1319 -278 l 69 972 "},"░":{"ha":1389,"x_min":0,"x_max":0,"o":"m 174 764 b 104 833 132 764 104 792 b 174 903 104 875 132 903 b 243 833 215 903 243 875 b 174 764 243 792 215 764 m 521 764 b 451 833 479 764 451 792 b 521 903 451 875 479 903 b 590 833 563 903 590 875 b 521 764 590 792 563 764 m 868 764 b 799 833 826 764 799 792 b 868 903 799 875 826 903 b 938 833 910 903 938 875 b 868 764 938 792 910 764 m 1215 764 b 1146 833 1174 764 1146 792 b 1215 903 1146 875 1174 903 b 1285 833 1257 903 1285 875 b 1215 764 1285 792 1257 764 m 0 556 b 69 486 42 556 69 528 b 0 417 69 444 42 417 m 347 417 b 278 486 306 417 278 444 b 347 556 278 528 306 556 b 417 486 389 556 417 528 b 347 417 417 444 389 417 m 694 417 b 625 486 653 417 625 444 b 694 556 625 528 653 556 b 764 486 736 556 764 528 b 694 417 764 444 736 417 m 1042 417 b 972 486 1000 417 972 444 b 1042 556 972 528 1000 556 b 1111 486 1083 556 1111 528 b 1042 417 1111 444 1083 417 m 1389 417 b 1319 486 1347 417 1319 444 b 1389 556 1319 528 1347 556 l 1389 417 m 174 69 b 104 139 132 69 104 97 b 174 208 104 181 132 208 b 243 139 215 208 243 181 b 174 69 243 97 215 69 m 521 69 b 451 139 479 69 451 97 b 521 208 451 181 479 208 b 590 139 563 208 590 181 b 521 69 590 97 563 69 m 868 69 b 799 139 826 69 799 97 b 868 208 799 181 826 208 b 938 139 910 208 938 181 b 868 69 938 97 910 69 m 1215 69 b 1146 139 1174 69 1146 97 b 1215 208 1146 181 1174 208 b 1285 139 1257 208 1285 181 b 1215 69 1285 97 1257 69 m 0 -139 b 69 -208 42 -139 69 -167 b 0 -278 69 -250 42 -278 m 347 -278 b 278 -208 306 -278 278 -250 b 347 -139 278 -167 306 -139 b 417 -208 389 -139 417 -167 b 347 -278 417 -250 389 -278 m 694 -278 b 625 -208 653 -278 625 -250 b 694 -139 625 -167 653 -139 b 764 -208 736 -139 764 -167 b 694 -278 764 -250 736 -278 m 1042 -278 b 972 -208 1000 -278 972 -250 b 1042 -139 972 -167 1000 -139 b 1111 -208 1083 -139 1111 -167 b 1042 -278 1111 -250 1083 -278 m 1389 -278 b 1319 -208 1347 -278 1319 -250 b 1389 -139 1319 -167 1347 -139 l 1389 -278 "},"▒":{"ha":1389,"x_min":0,"x_max":0,"o":"m 174 729 b 69 833 111 729 69 771 b 174 938 69 896 111 938 b 278 833 236 938 278 896 b 174 729 278 771 236 729 m 521 729 b 417 833 458 729 417 771 b 521 938 417 896 458 938 b 625 833 583 938 625 896 b 521 729 625 771 583 729 m 868 729 b 764 833 806 729 764 771 b 868 938 764 896 806 938 b 972 833 931 938 972 896 b 868 729 972 771 931 729 m 1215 729 b 1111 833 1153 729 1111 771 b 1215 938 1111 896 1153 938 b 1319 833 1278 938 1319 896 b 1215 729 1319 771 1278 729 m 0 590 b 111 486 69 590 111 549 b 0 382 111 424 69 382 m 347 382 b 243 486 285 382 243 424 b 347 590 243 549 285 590 b 451 486 410 590 451 549 b 347 382 451 424 410 382 m 694 382 b 590 486 632 382 590 424 b 694 590 590 549 632 590 b 799 486 757 590 799 549 b 694 382 799 424 757 382 m 1042 382 b 938 486 979 382 938 424 b 1042 590 938 549 979 590 b 1146 486 1104 590 1146 549 b 1042 382 1146 424 1104 382 m 1389 382 b 1278 486 1319 382 1278 424 b 1389 590 1278 549 1319 590 l 1389 382 m 174 35 b 69 139 111 35 69 76 b 174 243 69 201 111 243 b 278 139 236 243 278 201 b 174 35 278 76 236 35 m 521 35 b 417 139 458 35 417 76 b 521 243 417 201 458 243 b 625 139 583 243 625 201 b 521 35 625 76 583 35 m 868 35 b 764 139 806 35 764 76 b 868 243 764 201 806 243 b 972 139 931 243 972 201 b 868 35 972 76 931 35 m 1215 35 b 1111 139 1153 35 1111 76 b 1215 243 1111 201 1153 243 b 1319 139 1278 243 1319 201 b 1215 35 1319 76 1278 35 m 0 -104 b 111 -208 69 -104 111 -146 b 0 -312 111 -271 69 -312 m 347 -312 b 243 -208 285 -312 243 -271 b 347 -104 243 -146 285 -104 b 451 -208 410 -104 451 -146 b 347 -312 451 -271 410 -312 m 694 -312 b 590 -208 632 -312 590 -271 b 694 -104 590 -146 632 -104 b 799 -208 757 -104 799 -146 b 694 -312 799 -271 757 -312 m 1042 -312 b 938 -208 979 -312 938 -271 b 1042 -104 938 -146 979 -104 b 1146 -208 1104 -104 1146 -146 b 1042 -312 1146 -271 1104 -312 m 1389 -312 b 1278 -208 1319 -312 1278 -271 b 1389 -104 1278 -146 1319 -104 l 1389 -312 "},"▓":{"ha":1389,"x_min":0,"x_max":0,"o":"m 174 681 b 14 833 83 681 14 743 b 174 993 14 931 83 993 b 333 833 271 993 333 931 b 174 681 333 743 271 681 m 521 681 b 361 833 431 681 361 743 b 521 993 361 931 431 993 b 681 833 618 993 681 931 b 521 681 681 743 618 681 m 868 681 b 708 833 778 681 708 743 b 868 993 708 931 778 993 b 1028 833 965 993 1028 931 b 868 681 1028 743 965 681 m 1215 681 b 1056 833 1125 681 1056 743 b 1215 993 1056 931 1125 993 b 1375 833 1313 993 1375 931 b 1215 681 1375 743 1313 681 m 0 646 b 167 486 104 646 167 583 b 0 333 167 396 104 333 m 347 333 b 188 486 257 333 188 396 b 347 646 188 583 257 646 b 507 486 444 646 507 583 b 347 333 507 396 444 333 m 694 333 b 535 486 604 333 535 396 b 694 646 535 583 604 646 b 854 486 792 646 854 583 b 694 333 854 396 792 333 m 1042 333 b 882 486 951 333 882 396 b 1042 646 882 583 951 646 b 1201 486 1139 646 1201 583 b 1042 333 1201 396 1139 333 m 1389 333 b 1222 486 1285 333 1222 396 b 1389 646 1222 583 1285 646 l 1389 333 m 174 -14 b 14 139 83 -14 14 49 b 174 299 14 236 83 299 b 333 139 271 299 333 236 b 174 -14 333 49 271 -14 m 521 -14 b 361 139 431 -14 361 49 b 521 299 361 236 431 299 b 681 139 618 299 681 236 b 521 -14 681 49 618 -14 m 868 -14 b 708 139 778 -14 708 49 b 868 299 708 236 778 299 b 1028 139 965 299 1028 236 b 868 -14 1028 49 965 -14 m 1215 -14 b 1056 139 1125 -14 1056 49 b 1215 299 1056 236 1125 299 b 1375 139 1313 299 1375 236 b 1215 -14 1375 49 1313 -14 m 0 -49 b 167 -208 104 -49 167 -111 b 0 -361 167 -299 104 -361 m 347 -361 b 188 -208 257 -361 188 -299 b 347 -49 188 -111 257 -49 b 507 -208 444 -49 507 -111 b 347 -361 507 -299 444 -361 m 694 -361 b 535 -208 604 -361 535 -299 b 694 -49 535 -111 604 -49 b 854 -208 792 -49 854 -111 b 694 -361 854 -299 792 -361 m 1042 -361 b 882 -208 951 -361 882 -299 b 1042 -49 882 -111 951 -49 b 1201 -208 1139 -49 1201 -111 b 1042 -361 1201 -299 1139 -361 m 1389 -361 b 1222 -208 1285 -361 1222 -299 b 1389 -49 1222 -111 1285 -49 l 1389 -361 "},"▔":{"ha":1389,"x_min":0,"x_max":0,"o":"m -7 833 b 174 1014 -7 938 76 1014 b 347 885 260 1014 326 961 b 521 1014 369 961 440 1014 b 694 885 607 1014 674 961 b 868 1014 717 961 788 1014 b 1038 897 949 1014 1014 968 b 1215 1021 1064 972 1133 1021 b 1403 833 1326 1021 1403 944 b 1215 646 1403 722 1326 646 b 1038 769 1133 646 1064 694 b 868 653 1014 699 949 653 b 694 782 788 653 717 706 b 521 653 674 706 607 653 b 347 782 440 653 369 706 b 174 653 326 706 260 653 b -7 833 76 653 -7 729 m 0 667 b 174 538 86 667 153 614 b 347 667 196 614 267 667 b 521 538 433 667 500 614 b 694 667 543 614 614 667 b 864 550 775 667 840 621 b 1042 674 890 625 960 674 b 1219 551 1129 674 1196 626 b 1389 667 1244 621 1308 667 l 1389 306 b 1219 421 1308 306 1244 351 b 1042 299 1196 346 1129 299 b 864 422 960 299 890 347 b 694 306 840 351 775 306 b 521 435 614 306 543 358 b 347 306 500 358 433 306 b 174 435 267 306 196 358 b 0 306 153 358 86 306 m -7 139 b 174 319 -7 243 76 319 b 347 190 260 319 326 267 b 521 319 369 267 440 319 b 694 190 607 319 674 267 b 868 319 717 267 788 319 b 1038 203 949 319 1014 274 b 1215 326 1064 278 1133 326 b 1403 139 1326 326 1403 250 b 1215 -49 1403 28 1326 -49 b 1038 75 1133 -49 1064 0 b 868 -42 1014 4 949 -42 b 694 88 788 -42 717 11 b 521 -42 674 11 607 -42 b 347 88 440 -42 369 11 b 174 -42 326 11 260 -42 b -7 139 76 -42 -7 35 m 0 -28 b 174 -157 86 -28 153 -81 b 347 -28 196 -81 267 -28 b 521 -157 433 -28 500 -81 b 694 -28 543 -81 614 -28 b 864 -144 775 -28 840 -74 b 1042 -21 890 -69 960 -21 b 1219 -143 1129 -21 1196 -68 b 1389 -28 1244 -74 1308 -28 l 1389 -389 b 1219 -274 1308 -389 1244 -343 b 1042 -396 1196 -349 1129 -396 b 864 -272 960 -396 890 -347 b 694 -389 840 -343 775 -389 b 521 -260 614 -389 543 -336 b 347 -389 500 -336 433 -389 b 174 -260 267 -389 196 -336 b 0 -389 153 -336 86 -389 "},"←":{"ha":833,"x_min":0,"x_max":0,"o":"m 35 368 l 361 694 l 674 694 l 674 674 l 556 556 l 467 478 l 660 486 l 799 486 l 799 208 l 660 208 l 467 217 l 556 139 l 674 21 l 674 0 l 361 0 l 35 326 "},"↑":{"ha":833,"x_min":0,"x_max":0,"o":"m 278 104 l 286 297 l 208 208 l 90 90 l 69 90 l 69 403 l 396 729 l 438 729 l 764 403 l 764 90 l 743 90 l 625 208 l 547 297 l 556 104 l 556 -35 l 278 -35 "},"→":{"ha":833,"x_min":0,"x_max":0,"o":"m 35 486 l 174 486 l 367 478 l 278 556 l 160 674 l 160 694 l 472 694 l 799 368 l 799 326 l 472 0 l 160 0 l 160 21 l 278 139 l 367 217 l 174 208 l 35 208 "},"↓":{"ha":833,"x_min":0,"x_max":0,"o":"m 69 292 l 69 604 l 90 604 l 208 486 l 286 397 l 278 590 l 278 729 l 556 729 l 556 590 l 547 397 l 625 486 l 743 604 l 764 604 l 764 292 l 438 -35 l 396 -35 "},"↔":{"ha":1389,"x_min":0,"x_max":0,"o":"m 35 368 l 361 694 l 674 694 l 674 674 l 556 556 l 467 478 l 660 486 l 729 486 l 922 478 l 833 556 l 715 674 l 715 694 l 1028 694 l 1354 368 l 1354 326 l 1028 0 l 715 0 l 715 21 l 833 139 l 922 217 l 729 208 l 660 208 l 467 217 l 556 139 l 674 21 l 674 0 l 361 0 l 35 326 "},"↕":{"ha":833,"x_min":0,"x_max":0,"o":"m 278 382 l 286 575 l 208 486 l 90 368 l 69 368 l 69 681 l 396 1007 l 438 1007 l 764 681 l 764 368 l 743 368 l 625 486 l 547 575 l 556 382 l 556 313 l 547 119 l 625 208 l 743 326 l 764 326 l 764 14 l 438 -312 l 396 -312 l 69 14 l 69 326 l 90 326 l 208 208 l 286 119 l 278 313 "},"↖":{"ha":1111,"x_min":0,"x_max":0,"o":"m 361 493 l 340 517 l 340 507 l 347 -7 l 333 -21 l 69 236 l 69 944 l 97 972 l 806 972 l 1063 708 l 1049 694 l 535 701 l 532 701 l 556 681 l 1056 181 l 861 -14 "},"↗":{"ha":1111,"x_min":0,"x_max":0,"o":"m 528 681 l 551 701 l 542 701 l 28 694 l 14 708 l 271 972 l 979 972 l 1007 944 l 1007 236 l 743 -21 l 729 -7 l 736 507 l 736 510 l 715 486 l 215 -14 l 21 181 "},"↘":{"ha":1111,"x_min":0,"x_max":0,"o":"m 979 0 l 271 0 l 14 264 l 28 278 l 542 271 l 544 271 l 521 292 l 21 792 l 215 986 l 715 479 l 736 456 l 736 465 l 729 979 l 743 993 l 1007 736 l 1007 28 "},"↙":{"ha":1111,"x_min":0,"x_max":0,"o":"m 69 28 l 69 736 l 333 993 l 347 979 l 340 465 l 340 463 l 361 486 l 861 986 l 1056 792 l 549 292 l 525 271 l 535 271 l 1049 278 l 1063 264 l 806 0 l 97 0 "},"⇄":{"ha":1389,"x_min":0,"x_max":0,"o":"m 139 694 l 799 694 l 1081 679 l 979 764 l 785 951 l 785 972 l 958 972 l 1285 646 l 1285 604 l 958 278 l 785 278 l 785 299 l 979 486 l 1081 571 l 799 556 l 139 556 m 104 90 l 431 417 l 604 417 l 604 396 l 410 208 l 308 124 l 590 139 l 1250 139 l 1250 0 l 590 0 l 308 15 l 410 -69 l 604 -257 l 604 -278 l 431 -278 l 104 49 "},"✌":{"ha":833,"x_min":0,"x_max":0,"o":"m 708 0 b 438 -69 667 -35 549 -69 b 194 14 333 -69 236 -42 b 118 368 125 111 104 306 b 158 447 125 396 133 421 b 132 500 149 456 139 471 b 153 1021 28 903 76 1000 b 257 896 188 1028 229 1014 l 313 674 b 340 639 319 653 322 639 b 368 674 358 639 361 653 l 424 903 b 535 1028 451 1007 486 1042 b 583 722 576 1014 639 993 b 563 675 579 699 571 685 b 629 592 588 664 614 638 b 681 625 638 613 651 625 b 785 444 715 625 785 583 b 740 286 785 372 767 318 b 708 0 769 199 761 99 m 340 576 b 250 660 299 576 269 582 l 194 875 b 153 951 178 938 167 958 b 210 488 132 938 125 825 b 306 535 233 503 265 518 b 460 549 354 557 419 565 b 504 675 443 622 469 661 b 528 951 549 892 554 938 b 486 889 507 958 500 944 l 424 646 b 340 576 407 583 374 576 m 528 611 b 507 576 514 611 507 597 l 507 368 b 542 333 507 347 521 333 b 583 479 569 333 583 375 b 528 611 583 549 556 611 m 674 556 b 653 507 653 556 653 528 l 653 361 b 681 319 653 340 653 319 b 715 444 708 319 715 396 b 674 556 715 507 694 556 m 542 264 b 451 368 492 264 451 306 b 458 422 451 382 454 401 b 375 347 439 397 411 371 l 354 333 b 271 354 319 306 285 326 b 431 493 403 444 438 472 b 319 465 424 507 410 507 b 188 361 225 415 201 396 b 243 63 167 306 190 153 b 465 111 301 94 382 111 b 667 56 543 111 615 94 b 686 250 678 118 689 194 b 681 250 683 250 682 250 b 614 324 643 250 622 271 b 542 264 594 285 567 264 m 514 28 b 465 56 514 42 507 56 b 403 28 410 56 403 42 b 465 0 403 14 410 0 b 514 28 507 0 514 14 "},"☺":{"ha":1389,"x_min":0,"x_max":0,"o":"m 694 -292 b 56 347 278 -292 56 -76 b 694 986 56 764 278 986 b 1333 347 1111 986 1333 764 b 694 -292 1333 -76 1111 -292 m 694 -153 b 1194 347 1021 -153 1194 14 b 694 847 1194 674 1021 847 b 194 347 368 847 194 674 b 694 -153 194 14 368 -153 m 444 382 b 340 486 382 382 340 424 b 444 590 340 549 382 590 b 549 486 507 590 549 549 b 444 382 549 424 507 382 m 944 382 b 840 486 882 382 840 424 b 944 590 840 549 882 590 b 1049 486 1007 590 1049 549 b 944 382 1049 424 1007 382 m 694 0 b 444 250 535 0 444 83 l 944 250 b 694 0 944 83 861 0 "},"☻":{"ha":1389,"x_min":0,"x_max":0,"o":"m 694 -292 b 56 347 278 -292 56 -76 b 694 986 56 764 278 986 b 1333 347 1111 986 1333 764 b 694 -292 1333 -76 1111 -292 m 417 403 b 535 521 486 403 535 451 b 417 632 535 590 486 632 b 306 521 354 632 306 590 b 417 403 306 451 354 403 m 972 403 b 1083 521 1042 403 1083 451 b 972 632 1083 590 1042 632 b 854 521 903 632 854 590 b 972 403 854 451 903 403 m 694 -42 b 972 229 875 -42 972 49 l 417 229 b 694 -42 417 49 521 -42 "},"☠":{"ha":1389,"x_min":0,"x_max":0,"o":"m 632 -132 l 478 -132 l 465 -278 l 368 -278 l 347 -35 l 347 175 b 56 556 158 240 56 368 b 694 986 56 833 278 986 b 1333 556 1111 986 1333 833 b 1042 175 1333 368 1231 240 l 1042 -35 l 1021 -278 l 924 -278 l 911 -132 l 758 -132 l 743 -278 l 646 -278 m 486 -7 l 629 -7 l 639 139 l 743 139 l 758 -7 l 903 -7 l 903 278 b 1194 556 1097 319 1194 410 b 694 847 1194 743 1021 847 b 194 556 368 847 194 743 b 486 278 194 410 292 319 m 444 451 b 340 556 382 451 340 493 b 444 660 340 618 382 660 b 549 556 507 660 549 618 b 444 451 549 493 507 451 m 944 451 b 840 556 882 451 840 493 b 944 660 840 618 882 660 b 1049 556 1007 660 1049 618 b 944 451 1049 493 1007 451 m 708 535 l 792 347 l 792 278 l 729 278 l 694 347 l 660 278 l 597 278 l 597 347 l 688 535 "},"№":{"ha":1389,"x_min":0,"x_max":0,"o":"m 1319 750 b 1111 542 1319 625 1222 542 b 903 750 1000 542 903 625 l 903 778 b 1111 986 903 903 1000 986 b 1319 778 1222 986 1319 903 l 1319 750 m 306 396 l 313 278 l 313 0 l 35 0 l 35 972 l 299 972 l 528 576 l 521 694 l 521 972 l 799 972 l 799 0 l 535 0 m 1194 778 b 1111 861 1194 833 1167 861 b 1028 778 1056 861 1028 833 l 1028 750 b 1111 667 1028 694 1056 667 b 1194 750 1167 667 1194 694 l 1194 778 m 903 486 l 1319 486 l 1319 278 l 903 278 "}}}
